<svg width="177" height="168" viewBox="0 0 177 168" fill="none" xmlns="http://www.w3.org/2000/svg">
<g clip-path="url(#clip0_1_102)">
<path opacity="0.24" d="M20.96 160.26C20.9587 161.253 21.1533 162.237 21.5328 163.155C21.9122 164.072 22.4691 164.906 23.1713 165.609C23.8736 166.311 24.7076 166.868 25.6254 167.247C26.5432 167.627 27.5269 167.821 28.52 167.82H150.78C151.773 167.821 152.757 167.627 153.675 167.247C154.592 166.868 155.426 166.311 156.129 165.609C156.831 164.906 157.388 164.072 157.767 163.155C158.147 162.237 158.341 161.253 158.34 160.26V142.78H158.72L176.48 127.14L89.84 6.38998L3.24 127.14L21.01 142.78L20.96 160.26Z" fill="#00163D"/>
<path d="M86.64 0L7.62939e-06 120.75L17.76 136.39V153.88C17.7627 155.883 18.5603 157.804 19.9778 159.219C21.3953 160.635 23.3167 161.43 25.32 161.43H147.58C148.572 161.431 149.555 161.237 150.472 160.858C151.39 160.479 152.223 159.923 152.925 159.222C153.627 158.521 154.184 157.688 154.564 156.772C154.944 155.855 155.14 154.872 155.14 153.88V136.39H155.52L173.29 120.75L86.64 0Z" fill="#361C3A"/>
<path d="M86.64 8.26999L9.09 116.35L24.99 130.35H86.64H148.3L164.2 116.35L86.64 8.26999Z" fill="#498E86"/>
<path d="M86.64 17.61L21.79 117.42L35.08 130.35H86.64H138.21L151.5 117.42L86.64 17.61Z" fill="#44847B"/>
<path d="M86.64 32.54L38.11 119.14L48.06 130.35H86.64H125.23L135.18 119.14L86.64 32.54Z" fill="#3F7A70"/>
<path d="M103.228 74.9248C112.925 65.228 112.925 49.5065 103.228 39.8098C93.5314 30.1131 77.8099 30.1131 68.1132 39.8098C58.4164 49.5066 58.4164 65.2281 68.1131 74.9248C77.8099 84.6215 93.5314 84.6215 103.228 74.9248Z" fill="#ECA02E"/>
<path d="M13.03 119.82L49.07 91.28L54.17 97.63L85.67 55.07L105.44 73.98L117.76 100.24L129.33 93.52L164.2 116.35L148.3 130.35H24.99L13.03 119.82Z" fill="#E9EFD4"/>
<path d="M54.17 97.63L68.11 126.37V122.27L91.63 128.24L82.77 124.13L102.72 120.4L100.59 112.93L86.64 92.71L88.62 88.29L95.59 94.64L86.64 83.44L88.62 79.33L85.67 55.07L54.17 97.63Z" fill="#6D5E77"/>
<path d="M49.07 91.28L46.73 101.08L49.07 104.44V110.6L57.66 119.84L46.73 118.72L34.98 124.32L58.35 130.44L24.99 130.35L13.03 119.82L49.07 91.28Z" fill="#6D5E77"/>
<path d="M117.76 100.24L125.69 124.32L112.32 130.35H146.97L137.3 127.12L150.05 122.36L138.85 120.96L131.29 106.12L145.85 109.48L131.29 100.24L129.33 93.52L117.76 100.24Z" fill="#6D5E77"/>
<path d="M101.89 130.35L105.63 110.88L108.61 128.24L109.73 122.45L111.41 129.17L114.77 116.85L118.32 128.24H137.55L138.98 107.89L142.77 126.37L146.69 100.61L151.5 122.08L154.72 108.64L158.08 119.65L159.05 112.98L161.56 118.67L148.3 130.35H101.89Z" fill="#493B54"/>
<path d="M14.43 121.05L21.79 125.25L23.68 107.89L26.48 127.12L28.04 120.4L30.4 127.12L35.34 109.57L37.12 121.52L38.99 115.48L45.15 128.24L47.76 123.38L49.41 128.24L51.45 119.2L52.99 128.24L54.17 122.83L56.16 128.24L74.64 130.48L24.99 130.35L14.43 121.05Z" fill="#493B54"/>
<path d="M33.04 154.08H23.77V153.95C24.1942 153.715 24.5099 153.324 24.65 152.86V141.95C24.4976 141.492 24.1852 141.105 23.77 140.86V140.69H28.57V140.86C28.136 141.096 27.8048 141.484 27.64 141.95V153.15C29.72 153.15 32.48 153.35 33.06 149.95C33.12 149.82 33.57 149.84 33.57 149.95L33.04 154.08Z" fill="#E9EFD4"/>
<path d="M43.39 149.95L42.86 154.09H33.59V153.95C34.0051 153.705 34.3177 153.318 34.47 152.86V141.95C34.3177 141.492 34.0051 141.105 33.59 140.86V140.69H41.95L42.48 144.07C42.48 144.18 42.04 144.2 41.97 144.07C41.42 141.3 37.97 141.65 37.46 141.63V146.83C38.87 146.68 39.46 146.33 39.85 145.29C39.91 145.16 40.18 145.18 40.18 145.29V149.19C40.18 149.29 39.91 149.32 39.85 149.19C39.49 148.19 38.85 147.79 37.46 147.64V153.15C39.54 153.15 42.3 153.35 42.88 149.95C42.95 149.81 43.39 149.83 43.39 149.95Z" fill="#E9EFD4"/>
<path d="M45.38 154.08H43.13V153.95C43.41 153.95 43.92 153.36 44.13 152.86L47.78 142.06C47.71 141.88 47.49 141.82 47.56 141.69C48.5455 141.514 49.495 141.176 50.37 140.69L54.48 152.82C54.66 153.28 55.21 153.91 55.41 153.91V154.09H50.61V153.95C50.79 153.95 51.69 153.34 51.5 152.86L50.08 148.77H46.16L44.79 152.86C44.7407 152.972 44.7182 153.093 44.7243 153.215C44.7304 153.337 44.765 153.455 44.8253 153.561C44.8856 153.667 44.9699 153.758 45.0714 153.825C45.173 153.893 45.2889 153.935 45.41 153.95L45.38 154.08ZM46.38 148.17H49.92L48.08 142.95L46.38 148.17Z" fill="#E9EFD4"/>
<path d="M67.02 147.28C66.96 151.51 64.15 154.03 59.02 154.03H55.24V153.86C55.6589 153.619 55.9727 153.23 56.12 152.77V141.95C55.9727 141.49 55.6589 141.101 55.24 140.86V140.69H59.11C64.1 140.66 67.09 143.08 67.02 147.28ZM59.02 141.28V153.35C63.56 153.35 63.87 148.93 63.89 147.23C63.91 145.53 63.51 141.36 59.06 141.29L59.02 141.28Z" fill="#E9EFD4"/>
<path d="M77.07 149.95L76.54 154.09H67.24V153.95C67.6589 153.706 67.9752 153.319 68.13 152.86V141.95C67.9752 141.491 67.6589 141.104 67.24 140.86V140.69H75.6L76.14 144.07C76.14 144.18 75.69 144.2 75.63 144.07C75.07 141.3 71.63 141.65 71.11 141.63V146.83C72.53 146.68 73.11 146.33 73.5 145.29C73.57 145.16 73.83 145.18 73.83 145.29V149.19C73.83 149.29 73.57 149.32 73.5 149.19C73.15 148.19 72.5 147.79 71.11 147.64V153.15C73.19 153.15 75.96 153.35 76.53 149.95C76.63 149.81 77.07 149.83 77.07 149.95Z" fill="#E9EFD4"/>
<path d="M84.95 148.11L88.05 153.11C88.1339 153.301 88.2619 153.47 88.4235 153.602C88.5852 153.734 88.7759 153.826 88.98 153.87V154.05H84.64V153.95C84.93 153.95 85.35 153.78 85.07 153.19L82.19 148.59C81.86 148.59 81.5 148.59 81.19 148.59V152.83C81.3487 153.299 81.6816 153.689 82.12 153.92V154.1H77.32V153.95C77.7389 153.706 78.0551 153.319 78.21 152.86V141.95C78.0551 141.491 77.7389 141.104 77.32 140.86V140.69H82.14C85.39 140.69 88.4 141.34 88.4 144.46C88.38 146.43 86.88 147.54 84.95 148.11ZM85.29 144.41C85.29 142.82 84.51 141.41 81.44 141.41H81.17V147.88C84.51 147.89 85.29 145.67 85.29 144.41V144.41Z" fill="#E9EFD4"/>
<path d="M89.93 152.81V141.95C89.7752 141.491 89.4589 141.104 89.04 140.86V140.69H93.84C96.57 140.69 98.58 141.74 98.58 143.69C98.58 145.33 97.47 146.31 95.9 146.83C98.27 147.11 100.13 147.99 100.13 150.49C100.13 153.21 97.13 154.21 92.92 154.11H89.04V153.95C89.4685 153.694 89.7859 153.288 89.93 152.81ZM92.93 146.65C93.3186 146.649 93.7029 146.57 94.0602 146.417C94.4176 146.265 94.7407 146.042 95.0103 145.762C95.2798 145.482 95.4904 145.151 95.6295 144.788C95.7686 144.425 95.8334 144.038 95.82 143.65C95.82 142.65 95.03 141.39 92.93 141.36V146.65ZM92.93 147.26V153.51C96.09 153.51 97.02 151.61 97.04 150.42C97.04 148.59 95.63 147.26 93.19 147.26H92.93Z" fill="#E9EFD4"/>
<path d="M106.65 154.08C103.13 154.08 100.39 151.08 100.39 147.13C100.353 146.268 100.492 145.407 100.799 144.6C101.106 143.793 101.574 143.057 102.174 142.437C102.775 141.817 103.496 141.327 104.293 140.995C105.09 140.663 105.946 140.497 106.809 140.507C107.672 140.517 108.524 140.704 109.313 141.054C110.102 141.405 110.811 141.912 111.397 142.546C111.983 143.18 112.434 143.927 112.721 144.741C113.009 145.555 113.128 146.419 113.07 147.28C113.095 148.148 112.949 149.013 112.64 149.824C112.331 150.636 111.865 151.379 111.269 152.01C110.673 152.642 109.958 153.15 109.166 153.505C108.373 153.86 107.518 154.055 106.65 154.08V154.08ZM106.65 153.23C109.65 153.23 109.97 147.98 109.97 147.23C109.97 146.23 109.79 141.5 106.83 141.48C103.87 141.46 103.51 146.25 103.51 147.16C103.51 148.07 103.64 153.2 106.65 153.23Z" fill="#E9EFD4"/>
<path d="M114.11 154.08H111.85V153.95C112.14 153.95 112.65 153.36 112.85 152.86L116.5 142.06C116.43 141.88 116.21 141.82 116.27 141.69C117.256 141.515 118.205 141.177 119.08 140.69L123.2 152.82C123.38 153.28 123.93 153.91 124.13 153.91V154.09H119.33V153.95C119.5 153.95 120.41 153.34 120.21 152.86L118.8 148.77H114.88L113.51 152.86C113.461 152.972 113.438 153.093 113.444 153.215C113.45 153.337 113.485 153.455 113.545 153.561C113.606 153.667 113.69 153.758 113.791 153.825C113.893 153.893 114.009 153.935 114.13 153.95L114.11 154.08ZM115.11 148.17H118.65L116.81 142.95L115.11 148.17Z" fill="#E9EFD4"/>
<path d="M131.57 148.11L134.67 153.11C134.752 153.302 134.88 153.472 135.042 153.604C135.204 153.736 135.395 153.827 135.6 153.87V154.05H131.24V153.95C131.53 153.95 131.95 153.78 131.66 153.19L128.79 148.59C128.45 148.59 128.1 148.59 127.79 148.59V152.83C127.949 153.299 128.282 153.689 128.72 153.92V154.1H123.92V153.95C124.335 153.705 124.648 153.318 124.8 152.86V141.95C124.648 141.492 124.335 141.105 123.92 140.86V140.69H128.74C131.99 140.69 135 141.34 135 144.46C135 146.43 133.49 147.54 131.57 148.11ZM131.9 144.41C131.9 142.82 131.13 141.41 128.05 141.41H127.79V147.88C131.13 147.89 131.9 145.67 131.9 144.41V144.41Z" fill="#E9EFD4"/>
<path d="M147.49 147.28C147.43 151.51 144.62 154.03 139.49 154.03H135.62V153.86C136.039 153.619 136.353 153.23 136.5 152.77V141.95C136.353 141.49 136.039 141.101 135.62 140.86V140.69H139.49C144.57 140.66 147.56 143.08 147.49 147.28ZM139.49 141.28V153.35C144.03 153.35 144.34 148.93 144.36 147.23C144.38 145.53 143.98 141.36 139.53 141.29L139.49 141.28Z" fill="#E9EFD4"/>
</g>
<defs>
<clipPath id="clip0_1_102">
<rect width="176.48" height="167.82" fill="white"/>
</clipPath>
</defs>
</svg>
