<?xml version="1.0" encoding="utf-8"?>
<!-- Generator: Adobe Illustrator 25.4.1, SVG Export Plug-In . SVG Version: 6.00 Build 0)  -->
<svg version="1.1" id="Capa_1" xmlns="http://www.w3.org/2000/svg" xmlns:xlink="http://www.w3.org/1999/xlink" x="0px" y="0px"
	 viewBox="0 0 642 649" style="enable-background:new 0 0 642 649;" xml:space="preserve">
<style type="text/css">
	.st0{fill:#6A1A41;}
	.st1{fill:#90404F;}
	.st2{fill:url(#SVGID_1_);}
	.st3{fill-rule:evenodd;clip-rule:evenodd;fill:url(#SVGID_00000176761107591005858010000008875045780318685607_);}
	.st4{fill:#543160;}
	.st5{fill:url(#SVGID_00000075862017643906330760000015697066488438915253_);}
	.st6{fill:url(#SVGID_00000044168983317039687680000011471903355677527436_);}
	.st7{fill-rule:evenodd;clip-rule:evenodd;fill:url(#SVGID_00000129887027034430186670000007139641925953301164_);}
	.st8{fill-rule:evenodd;clip-rule:evenodd;fill:url(#SVGID_00000139263942535553122240000010513555133587371427_);}
	.st9{fill-rule:evenodd;clip-rule:evenodd;fill:url(#SVGID_00000129921332906143617100000018315288791651828135_);}
	.st10{fill-rule:evenodd;clip-rule:evenodd;fill:url(#SVGID_00000181062064976841892220000006209881027283089297_);}
	.st11{opacity:0.6;fill:url(#SVGID_00000140006653946451551570000017102988544098644871_);}
	.st12{opacity:0.6;fill:url(#SVGID_00000037689516546650362810000006564542592888833927_);}
	.st13{opacity:0.6;fill:url(#SVGID_00000067948273825799036760000009425553550640118717_);}
	.st14{fill:#E0FFFF;}
	.st15{opacity:0.3;fill:url(#SVGID_00000086660948169818610860000012164196453180054680_);}
	.st16{opacity:0.3;fill:url(#SVGID_00000106827611878503185110000011051753012371523209_);}
	.st17{opacity:0.5;fill-rule:evenodd;clip-rule:evenodd;fill:#9A5459;}
	.st18{fill-rule:evenodd;clip-rule:evenodd;fill:#CC5268;}
	.st19{fill-rule:evenodd;clip-rule:evenodd;fill:url(#SVGID_00000080904268195066098000000001734117249942238862_);}
	.st20{opacity:0.2;fill-rule:evenodd;clip-rule:evenodd;fill:#CF7A79;}
	.st21{fill:url(#SVGID_00000078732358825230452730000005440684517971794309_);}
	.st22{fill-rule:evenodd;clip-rule:evenodd;fill:#988100;}
	.st23{fill:url(#SVGID_00000094583525032952375010000015036331381898550420_);}
	.st24{fill-rule:evenodd;clip-rule:evenodd;fill:url(#SVGID_00000083048827410811906510000018063041184955161496_);}
	.st25{fill-rule:evenodd;clip-rule:evenodd;fill:url(#SVGID_00000044866253726230912030000016138082658871786635_);}
	.st26{fill:url(#SVGID_00000120553879633176555480000007560525422559371409_);}
	.st27{fill:url(#SVGID_00000066510540852051691380000010834092649829340592_);}
	.st28{fill-rule:evenodd;clip-rule:evenodd;fill:url(#SVGID_00000063610530941355298450000009316745801533108919_);}
	.st29{opacity:0.8;fill:url(#SVGID_00000029024010093525357840000005765272513602108307_);}
	.st30{fill-rule:evenodd;clip-rule:evenodd;fill:url(#SVGID_00000056427621257514461120000003240835131990475152_);}
	.st31{fill:url(#SVGID_00000105398808812265359830000012053520874414239907_);}
	.st32{fill:url(#SVGID_00000065794662902711774690000012869585794210687410_);}
	.st33{opacity:0.5;fill-rule:evenodd;clip-rule:evenodd;fill:url(#SVGID_00000110451831514281798170000012162624965747828921_);}
	.st34{fill-rule:evenodd;clip-rule:evenodd;fill:url(#SVGID_00000160896073263130798870000002112381842838359458_);}
	.st35{opacity:0.5;fill-rule:evenodd;clip-rule:evenodd;fill:url(#SVGID_00000137816649536421007930000003381954783859560361_);}
	.st36{fill-rule:evenodd;clip-rule:evenodd;fill:url(#SVGID_00000020357941338227663370000012725168627367574451_);}
	.st37{opacity:0.5;fill-rule:evenodd;clip-rule:evenodd;fill:url(#SVGID_00000035508679375561814380000014971678043461509525_);}
	.st38{opacity:0.5;fill-rule:evenodd;clip-rule:evenodd;fill:url(#SVGID_00000052806360857223530110000016016362541247761043_);}
	.st39{fill-rule:evenodd;clip-rule:evenodd;fill:#150818;}
	.st40{fill:url(#SVGID_00000023999763375868367790000017474023117309517496_);}
	.st41{opacity:0.5;fill:url(#SVGID_00000129894257191892374050000002725135142942997915_);}
	.st42{fill:url(#SVGID_00000006675227795860384040000000587168480375282316_);}
	.st43{fill-rule:evenodd;clip-rule:evenodd;fill:url(#SVGID_00000127753815413554428000000005950812770326295939_);}
	.st44{opacity:0.5;fill:url(#SVGID_00000165916982458957752960000006899411620753758600_);}
	.st45{fill:url(#SVGID_00000044892752326321255410000002017145458558319292_);}
	.st46{opacity:0.5;fill:url(#SVGID_00000104687786440842905140000012010253505069634178_);}
	.st47{opacity:0.6;fill:url(#SVGID_00000088820629346974160280000008247627193168403331_);}
	.st48{fill-rule:evenodd;clip-rule:evenodd;fill:url(#SVGID_00000090984776961166718300000014236762004818023829_);}
	.st49{fill-rule:evenodd;clip-rule:evenodd;fill:url(#SVGID_00000162338024566508232060000013837993680551391653_);}
	.st50{fill-rule:evenodd;clip-rule:evenodd;fill:url(#SVGID_00000116916450830099522730000004708542056969394364_);}
	.st51{opacity:0.5;fill:url(#SVGID_00000016044149390332886470000000822607877078749100_);}
	.st52{fill-rule:evenodd;clip-rule:evenodd;fill:#684A79;}
	.st53{fill-rule:evenodd;clip-rule:evenodd;fill:url(#SVGID_00000108267348557942954480000012244794834717461668_);}
	.st54{fill:url(#SVGID_00000043436821012662806780000006730845298235267993_);}
	.st55{fill:url(#SVGID_00000074442331940638270080000002345205194188787079_);}
	.st56{opacity:0.6;fill:url(#SVGID_00000062904413861235736880000016033636152430787497_);}
	.st57{opacity:0.6;fill:url(#SVGID_00000121258363211077677930000001287471452615232694_);}
	.st58{opacity:0.6;fill:url(#SVGID_00000101103334881608775420000003072850568051426705_);}
	.st59{opacity:0.6;fill:url(#SVGID_00000109713787377405966450000003418806115445858743_);}
	.st60{opacity:0.6;fill:url(#SVGID_00000134954737106943918730000014347160711657122997_);}
	.st61{opacity:0.3;fill-rule:evenodd;clip-rule:evenodd;fill:#D97759;}
	.st62{fill:#FFD1AE;}
	.st63{fill:#FFFFE6;}
	.st64{fill:#FFA190;}
	.st65{fill:#FF8645;}
	.st66{opacity:0.6;fill:url(#SVGID_00000080918737921223238670000008832436604564322230_);}
	.st67{fill:#FFC754;}
	.st68{fill:#984372;}
	.st69{opacity:0.3;fill:url(#SVGID_00000115502246427702790440000004918316261544128644_);}
	.st70{opacity:0.67;fill:#543160;}
</style>
<polygon class="st0" points="641.4,648.9 378.6,601.1 303.4,588 295.2,588.8 326.3,613.8 407.8,642.3 390.2,648.9 243.5,607.3 
	185,599.2 165.5,600.3 221.7,627.8 249,648.9 "/>
<g>
	<g>
		<path class="st1" d="M342.3,319.6c0,0-2.1-0.4-4,0.5c-1.9,0.9-4.3,6.6-8.5,6.4c-1.8-0.3-2.6-1.3-2.9-3.1c0,0,3.5-1.8,6.7-8.5
			c3.2-6.7,5.5-10.5,11.3-9.1C344.9,305.8,344.8,315.4,342.3,319.6z"/>
		<path class="st1" d="M346.1,350.7l-8,6.2c0,0-3.2-1.7-4.2-6.2c-1-4.5,1.7-11.6,5.2-16.8l0.8-4.1c0,0-2.5,4.1-4.2,6.6
			c-1.7,2.5-5.6,6.9-5.6,6.9s-3.2-6.9,2.8-13.5c0,0,8.8-4.4,10.9-14.9l6.1,2.3l1.3,19.8L346.1,350.7z"/>
		
			<linearGradient id="SVGID_1_" gradientUnits="userSpaceOnUse" x1="273.6027" y1="354.8756" x2="273.6027" y2="199.4006" gradientTransform="matrix(-1 0 0 1 642 0)">
			<stop  offset="1.598750e-02" style="stop-color:#CD706F"/>
			<stop  offset="1" style="stop-color:#DB7766"/>
		</linearGradient>
		<path class="st2" d="M348.8,341.4c-7.5,7.1-4.2,13.5-4.2,13.5s9-8.2,10.3-10.1c1.2-1.9,1.6-20,3.9-28.1
			c2.2-8.2,12.6-27.5,21.9-49.4c2.9-6.9,5.2-13.6,7-19.5c3.9-12.7,5.3-21.8,5.3-21.8l-6.5-24.4c-14.9-4.9-38.2,0-38.2,0l16.4,30.4
			c-9.3,12.4-11.2,30.2-11.8,44.7c-0.4,9.4-0.2,17.5-1.1,21.6c-2.3,10.5-8.1,16.6-8.1,16.6l1.4,4.6c0,0-0.4,3.8,1.9,9.9
			C349.4,335.5,348.8,341.4,348.8,341.4z"/>
	</g>
	
		<linearGradient id="SVGID_00000039843217707206888470000005833051041991319190_" gradientUnits="userSpaceOnUse" x1="347.3307" y1="555.2313" x2="347.3307" y2="306.5735" gradientTransform="matrix(-1 0 0 1 642 0)">
		<stop  offset="0" style="stop-color:#4A4AA2"/>
		<stop  offset="1" style="stop-color:#6066BA"/>
	</linearGradient>
	<path style="fill-rule:evenodd;clip-rule:evenodd;fill:url(#SVGID_00000039843217707206888470000005833051041991319190_);" d="
		M194.8,536.1c-0.2,1.4,4,7,4,7s21.9,11.8,30,12.1c8.1,0.3,22.7-6.7,22.7-6.7s8.9-14.2,8.5-16.4l0-0.1c-0.8-1.7-8.1-1.7-8.1-1.7
		l0-0.1c0.4-0.9,3.9-8,4-9.7c0.2-1.8-1.6-2.5-1.6-2.5s2.7-17.8-0.3-33.8c-2.9-16-6.9-41.9-6.9-48.4c0-6.5,13.7-81.9,20.4-94.3v0
		c0.5-0.5,8.7-7.9,19.4-7.9c0,0,9,81.4,17.7,99.4c0,0,3.1,9.5,7.6,15.1c4.5,5.6,19.7,25.6,25,55.6c0,0-6.2,7.8-6.5,10.9
		c0,0.5,0.1,1.2,0.3,2c1.2,4.2,5.6,12.1,6.1,13.1l0.1,0.1v3.6c0,0,21.6,8.4,34,8.4c12.3,0,21-7,21.3-8.7c0.3-1.7-3.9-2.5-3.9-2.5
		s4.6-7.3,5.8-11.1c0.2-0.8,0.3-1.4,0.3-1.8c-0.5-2.4-5.6-3.4-7.7-4.3c-0.1,0-0.2-0.1-0.3-0.2c-1.7-1-4.2-8.4-4.6-12.4
		c-0.4-3.9,0.7-16.9-11.1-34.6c-11.8-17.7-24.8-33.7-29-44.8c-4.2-11.2-11.1-76.9-10.1-103.2l-110-11.7c0,0-5,2.2-5,2.7
		c0,0.6,4.7,7.9,5,8.4v0c0,0-11.5,74.7-11.1,113.9c0,0,2.1,17.2,3,33.8c0.8,16.6-5.6,55-8.4,60.1
		C202.4,530.5,195.1,534.7,194.8,536.1z"/>
	<path class="st4" d="M198.7,543.2c0,0,21.9,11.8,30,12.1c8.1,0.3,22.7-6.7,22.7-6.7s8.9-14.2,8.5-16.4l0-0.1c0,0-13.1,5.7-32.9,6.1
		c0,0,15.8-2.5,24.8-7.8l0.1-0.1c0.4-0.9,3.9-8,4-9.7c0.2-1.8-1.5-2.5-1.5-2.5s2.7-17.8-0.3-33.8c-2.9-16-6.9-41.9-6.9-48.4
		c0-6.5,13.7-81.9,20.4-94.3c0,0,8.4-7.9,19.4-7.9l20.1,14.6c0,0,6.8,90.5,10.4,92.1c3.6,1.6,27.6,28.1,31,35.5c3.4,7.4,8,43,8,43
		s-18.5-0.5-25.7-4.1l0.3,2c1.3,4.5,6.1,13.2,6.1,13.2v3.6c0,0,21.6,8.4,34,8.4c12.3,0,21.1-7,21.3-8.7c0.3-1.7-3.9-2.5-3.9-2.5
		s4.6-7.3,5.8-11.1c-3.8,1.9-10.4,4.5-18,4.7c0,0,6.6-6.3,10.5-10.8c-0.1-0.1-0.2-0.1-0.3-0.2c-1.7-1-4.2-8.4-4.6-12.3
		c-0.4-3.9,0.7-16.9-11.1-34.6c-11.8-17.7-24.8-33.7-29-44.8c-4.2-11.2-11.1-76.9-10.1-103.2l-110-11.6c0,0-5,2.2-5,2.7
		c0,0.6,4.7,7.9,5,8.4l0,0l10.4,13.5c0,0-17.4,77-10.4,110.6l8.3,28.6c0,0,2.5,50-9.9,58.7c-3.3,2.3-25.4,6.9-25.4,6.9
		C194.5,537.5,198.7,543.2,198.7,543.2z"/>
	
		<linearGradient id="SVGID_00000078017621635433138620000001453019047168992139_" gradientUnits="userSpaceOnUse" x1="437.5181" y1="609.408" x2="437.5181" y2="597.0603" gradientTransform="matrix(-1 0 0 1 642 0)">
		<stop  offset="0" style="stop-color:#C96152"/>
		<stop  offset="0.9784" style="stop-color:#C76834"/>
	</linearGradient>
	<path style="fill:url(#SVGID_00000078017621635433138620000001453019047168992139_);" d="M165.5,600.3c11.8,5.9,28,4.2,28,4.2
		l3.5-1.4c0,0,1.4-0.7,3,0c1.6,0.7,3.5,4.2,3.5,4.2c22.6,4.8,40.1,0,40.1,0l-1.1-5.7l-0.3-1.4l-52.8-2.2l-22.6-0.9L165.5,600.3z"/>
	
		<linearGradient id="SVGID_00000054257727254131787840000012399650681184590487_" gradientUnits="userSpaceOnUse" x1="305.1242" y1="609.6307" x2="305.1242" y2="586.0958" gradientTransform="matrix(-1 0 0 1 642 0)">
		<stop  offset="0" style="stop-color:#C96152"/>
		<stop  offset="0.9784" style="stop-color:#C76834"/>
	</linearGradient>
	<path style="fill:url(#SVGID_00000054257727254131787840000012399650681184590487_);" d="M295.2,588.8c0,0,9.1,8.7,19.1,9.8
		c5.7,0.6,11.3,0.7,15.3,0.8c3,0,5.1,0,5.8,0.3c1.6,0.5,3.4,4.1,3.5,5.2c0.1,1,1.2,3.1,1.2,3.1c14.4,3.7,38.6,0,38.6,0v-7.9
		l-50.6-8.7h0l-30.9-5.3L295.2,588.8z"/>
	
		<linearGradient id="SVGID_00000042004203417449617080000005066612025031724969_" gradientUnits="userSpaceOnUse" x1="303.1452" y1="603.1229" x2="303.1452" y2="564.2841" gradientTransform="matrix(-1 0 0 1 642 0)">
		<stop  offset="5.586610e-03" style="stop-color:#3E1B40"/>
		<stop  offset="0.9777" style="stop-color:#3A234D"/>
	</linearGradient>
	<path style="fill-rule:evenodd;clip-rule:evenodd;fill:url(#SVGID_00000042004203417449617080000005066612025031724969_);" d="
		M297.1,586.1C297.1,586.1,297.1,586.1,297.1,586.1c0.1,0,0.1,0.1,0.1,0.1c13.5,11.1,35.5,10.3,35.5,10.3l3.8,1.7l4.2,3.6
		c18.1,3.6,37.9-0.6,37.9-0.6s2.1-2.5,2.1-5.5c0-1.7-1.2-8.8-2.2-14.6c-0.8-4.3-1.4-7.8-1.4-7.8c-4-2.2-14.5-4.4-24-6.1
		c-9.6-1.7-18.2-2.9-18.2-2.9s-1,1.5-2.9,3.3c-0.5,0.5-1,0.9-1.7,1.4l0,0c-1.5,1.1-3.4,2.2-5.5,2.7c-6.2,1.4-21.8,0.4-23.7,1.7
		C299.1,574.5,297.1,586.1,297.1,586.1z"/>
	
		<linearGradient id="SVGID_00000044893317510940818990000018233801530420975016_" gradientUnits="userSpaceOnUse" x1="436.0557" y1="603.0377" x2="436.0557" y2="570.9537" gradientTransform="matrix(-1 0 0 1 642 0)">
		<stop  offset="5.586610e-03" style="stop-color:#3E1B40"/>
		<stop  offset="0.9777" style="stop-color:#3A234D"/>
	</linearGradient>
	<path style="fill-rule:evenodd;clip-rule:evenodd;fill:url(#SVGID_00000044893317510940818990000018233801530420975016_);" d="
		M166.7,597.1C166.7,597.1,166.7,597.1,166.7,597.1c0.2,0.1,0.3,0.1,0.5,0.2c2.1,0.8,11.5,4.4,19.2,4c8.7-0.4,13.8-1.1,13.8-1.1
		l2.1,1.4c17.8,3.4,40.2,0,40.2,0s2.8-3.2,2.8-4.9c0-1.3-3-8.8-4.4-12.2c-0.4-1-0.7-1.6-0.7-1.6c-6.9-3.2-45.3-11.9-45.3-11.9
		c-0.1,0.1-0.2,0.1-0.3,0.2c-0.6,0.4-1.3,0.8-2,1.1c-7.4,3.4-18,3.3-18,3.3C165.9,584,166.7,597.1,166.7,597.1z"/>
	
		<linearGradient id="SVGID_00000058579948525661463770000011186648166912448155_" gradientUnits="userSpaceOnUse" x1="283.0318" y1="582.8483" x2="283.0318" y2="531.5075" gradientTransform="matrix(-1 0 0 1 642 0)">
		<stop  offset="5.586610e-03" style="stop-color:#3E1B40"/>
		<stop  offset="0.9777" style="stop-color:#523E63"/>
	</linearGradient>
	<path style="fill-rule:evenodd;clip-rule:evenodd;fill:url(#SVGID_00000058579948525661463770000011186648166912448155_);" d="
		M328,564.6c0,0,1.5,1.2,4,3c0.1,0.1,0.1,0.1,0.2,0.1c7.4,5.3,23,15.4,33.7,15.2c5.1-0.1,9.3-0.9,12.5-1.8c6.1-1.8,9.1-4.2,9.1-4.2
		s-1.9-3.4-2.3-14.9c-0.4-11.6,4.8-19.4,4.6-20c-0.2-0.6-4.6-3.3-4.6-3.3s-4.4,1.4-10.6,2.2h0c-2.5,0.3-5.3,0.5-8.2,0.5
		c-10-0.1-29.4-7.9-29.4-7.9v-1.9l-2.9,0.8l0,7c0,5.3-0.1,12-0.4,13.7C333.2,556.1,328,564.6,328,564.6z"/>
	
		<linearGradient id="SVGID_00000145039831727359145380000001047598170009527469_" gradientUnits="userSpaceOnUse" x1="418.6372" y1="588.0219" x2="418.6372" y2="543.163" gradientTransform="matrix(-1 0 0 1 642 0)">
		<stop  offset="5.586610e-03" style="stop-color:#3E1B40"/>
		<stop  offset="0.9777" style="stop-color:#523E63"/>
	</linearGradient>
	<path style="fill-rule:evenodd;clip-rule:evenodd;fill:url(#SVGID_00000145039831727359145380000001047598170009527469_);" d="
		M192.4,568.3c0,0,0.7,1.1,2.1,2.9c4,5.3,13.4,15.9,24.5,16.8c8.1,0.6,16.2-1.5,21.8-3.5c4.7-1.7,7.8-3.3,7.8-3.3s-2.2-8.7-1.3-15.2
		c1-6.5,7-14,7-14l-2.8-3.5c0,0-15.2,6.2-22.9,5.8c-1.9-0.1-4.6-0.8-7.7-1.8h0c-9.1-3-21.1-8.7-22.1-9.2l-0.1,0
		c-0.1,1.3-0.4,2.9-0.7,4.6C196.3,556.3,192.4,568.3,192.4,568.3z"/>
	
		<linearGradient id="SVGID_00000129905425949665499650000017239751542063486391_" gradientUnits="userSpaceOnUse" x1="370.4495" y1="341.4015" x2="370.4495" y2="291.4959" gradientTransform="matrix(-1 0 0 1 642 0)">
		<stop  offset="1.117320e-02" style="stop-color:#BE6888"/>
		<stop  offset="1" style="stop-color:#C26157"/>
	</linearGradient>
	<path style="opacity:0.6;fill:url(#SVGID_00000129905425949665499650000017239751542063486391_);" d="M211.4,291.5l10.4,15.1
		l37.4,15.8l8.4,19l0,0c0.5-0.5,8.7-7.9,19.4-7.9l21.5-1.8l-9.4-2.4l32.8-11L211.4,291.5z"/>
	<path class="st4" d="M297.1,586.1c8.3,9.5,30.9,11.7,30.9,11.7l1.5,1.5c3,0,5.1,0,5.8,0.3c1.6,0.5,3.4,4.1,3.5,5.2
		c0.1,1,1.2,3.1,1.2,3.1c14.4,3.7,38.6,0,38.6,0v-6.9c0,0,2.1-2.5,2.1-5.5c0-1.7-1.2-8.8-2.2-14.6c6.1-1.8,9.1-4.2,9.1-4.2
		s-1.9-3.4-2.3-14.9c-0.4-11.6,4.8-19.4,4.6-20c-0.2-0.6-4.6-3.3-4.6-3.3s-4.4,1.4-10.6,2.2h0l-3.6,1l-4.2,1.3
		c-10.2,0.4-16.8,0-26.2-3.5l-6.4-7.3l0,7l16.9,20.5l2,7.3l3,10.8c-12.3-4.2-23.7-10.4-23.7-10.4l-0.1,0.1l-1.9,1.2l0,0l1,2l1.5,5.6
		l-4.9,14.8h0C307.3,591.8,298.2,586.8,297.1,586.1C297.1,586.1,297.1,586.1,297.1,586.1z"/>
	<path class="st4" d="M166.7,597.1c0.3,0.4,5.6,6.1,26.7,7.4l3.5-1.4c0,0,1.4-0.7,3,0c1.6,0.7,3.5,4.2,3.5,4.2
		c22.6,4.8,40.1,0,40.1,0l-1.1-5.7c0,0,2.8-3.2,2.8-4.9c0-1.3-3-8.8-4.4-12.2c4.7-1.7,7.8-3.3,7.8-3.3s-2.2-8.7-1.3-15.2
		c1-6.5,7-14,7-14l-2.8-3.5c0,0-15.2,6.2-22.9,5.8c-1.9-0.1-4.6-0.8-7.7-1.8h0l-22.9-4.6c-1.7,8.5-5.6,20.5-5.6,20.5
		s0.7,1.1,2.1,2.9c-0.6,0.4-1.3,0.8-2,1.1l9.1,14.7l-1.4,8.1l-10.8,2.9l-4.4,1.2c0,0-12,0.3-17.8-1.9
		C167,597.2,166.9,597.1,166.7,597.1z"/>
	
		<linearGradient id="SVGID_00000180360526860205088590000015875670389829019838_" gradientUnits="userSpaceOnUse" x1="279.3571" y1="541.8235" x2="279.3571" y2="516.5799" gradientTransform="matrix(-1 0 0 1 642 0)">
		<stop  offset="1.117320e-02" style="stop-color:#BE6888"/>
		<stop  offset="1" style="stop-color:#C26157"/>
	</linearGradient>
	<path style="opacity:0.6;fill:url(#SVGID_00000180360526860205088590000015875670389829019838_);" d="M331,516.6l6.1,13.1l0.1,0.1
		v3.6c0,0,21.6,8.4,34,8.4c12.3,0,21-7,21.3-8.7c0,0-7.7,3.9-24.5,2.4c0,0,15.2-3,20.6-4.9c0,0,4.6-7.3,5.8-11.1
		c0,0-5.9,5.2-27.9,6.1C345.1,526.5,331.8,517.1,331,516.6z"/>
	
		<linearGradient id="SVGID_00000176750126360020378490000003060505295321443200_" gradientUnits="userSpaceOnUse" x1="414.6383" y1="555.2313" x2="414.6383" y2="531.9335" gradientTransform="matrix(-1 0 0 1 642 0)">
		<stop  offset="1.117320e-02" style="stop-color:#BE6888"/>
		<stop  offset="1" style="stop-color:#C26157"/>
	</linearGradient>
	<path style="opacity:0.6;fill:url(#SVGID_00000176750126360020378490000003060505295321443200_);" d="M194.8,536.1
		c-0.2,1.4,4,7,4,7s21.9,11.8,30,12.1c8.1,0.3,22.7-6.7,22.7-6.7s8.9-14.2,8.5-16.4l0-0.1c0,0-11.2,7.5-30.1,8.8
		C210.9,542,194.8,536.1,194.8,536.1z"/>
	<path class="st14" d="M205.2,525.5c0,0,14.2-2.1,21.3-7.7c0,0-2.5,7.4-8.5,11.4c-6,4-23.2,6.9-23.2,6.9S200.8,531,205.2,525.5z"/>
	<path class="st14" d="M337.1,503.6l1.7,3c0,0,2.8,9.2,17.5,12.1c0,0-13.7,0.6-25.7-4.1C330.7,514.5,332,510.3,337.1,503.6z"/>
	<path class="st14" d="M210.6,431.6c0,0,8.7-78.5,21.5-100.4l-10.4-13.5C221.7,317.7,210.6,392.2,210.6,431.6z"/>
	<path class="st14" d="M306.9,348.1c0,0-8.2,52.6,2.1,95.2c0,0-12.5-14.1-22.2-109.8L306.9,348.1z"/>
	
		<linearGradient id="SVGID_00000178893673623435093410000016775258096930102923_" gradientUnits="userSpaceOnUse" x1="293.6544" y1="432.1263" x2="325.8582" y2="432.1263" gradientTransform="matrix(-1 0 0 1 642 0)">
		<stop  offset="1.117320e-02" style="stop-color:#BE6888"/>
		<stop  offset="1" style="stop-color:#C26157"/>
	</linearGradient>
	<path style="opacity:0.3;fill:url(#SVGID_00000178893673623435093410000016775258096930102923_);" d="M348.3,435.6
		c0,0-16,3.6-32.2,1.4l22.6-2.8l4.8-7.7L348.3,435.6z"/>
	
		<linearGradient id="SVGID_00000036238315542455481200000011368111221565176756_" gradientUnits="userSpaceOnUse" x1="394.9139" y1="439.5293" x2="420.6113" y2="439.5293" gradientTransform="matrix(-1 0 0 1 642 0)">
		<stop  offset="1.117320e-02" style="stop-color:#BE6888"/>
		<stop  offset="1" style="stop-color:#C26157"/>
	</linearGradient>
	<path style="opacity:0.3;fill:url(#SVGID_00000036238315542455481200000011368111221565176756_);" d="M247.1,435.7l-5,3.4
		c0,0-11.8-1.6-20.7-5.7c0,0,7.2,7.5,21.4,12.1l4.3-3.7V435.7z"/>
	<path class="st17" d="M364.8,231.9c-9.3,12.4-11.2,30.2-11.8,44.7l34.7-28.9c3.9-12.7,5.3-21.8,5.3-21.8l-6.5-24.4
		c-14.9-4.9-38.2,0-38.2,0L364.8,231.9z"/>
	<g>
		<polygon class="st18" points="103.7,163.1 97.8,153.1 72.7,154.1 78.3,158.3 95.4,169.6 		"/>
		
			<linearGradient id="SVGID_00000137848844517748146110000010568611272451914120_" gradientUnits="userSpaceOnUse" x1="543.5098" y1="212.5267" x2="543.5098" y2="80.2174" gradientTransform="matrix(-1 0 0 1 642 0)">
			<stop  offset="0" style="stop-color:#907AAC"/>
			<stop  offset="1" style="stop-color:#FFBAFF"/>
		</linearGradient>
		<path style="fill-rule:evenodd;clip-rule:evenodd;fill:url(#SVGID_00000137848844517748146110000010568611272451914120_);" d="
			M0.6,157.2c1-0.5,18.6-9.1,23.2-11.2l1-0.4c1.6-0.6,20.9,1.6,31.8,3.6c10.9,2.1,47.1,13.9,47.1,13.9c6.4,2.1,41.8,47.4,41.8,47.4
			l23.6,2.1l27.3-53.2c0,0-26-35.1-46.7-58.6l-0.3-0.3c-9.8-11-18.4-19.4-22.5-20.2c-7-1.4-89.7,38.3-91.9,41.5
			c-0.6,0.9-2,2.2-3.7,3.6c-4.6,3.7-11.3,8.3-11.3,8.3c-8.4,7-16,18-18.5,22C1,156.5,0.7,157,0.6,157.2z"/>
		<polygon class="st20" points="119,138.1 165.3,148.6 147,150.2 167.2,187.4 161.1,200.6 116.1,178.6 114.1,150.2 		"/>
		
			<linearGradient id="SVGID_00000155136837005652396540000000476209668093963945_" gradientUnits="userSpaceOnUse" x1="332.0704" y1="131.274" x2="332.0704" y2="9.7919" gradientTransform="matrix(-0.7832 0.6218 0.6218 0.7832 344.3196 -74.1137)">
			<stop  offset="1.598750e-02" style="stop-color:#CD706F"/>
			<stop  offset="1" style="stop-color:#DB7766"/>
		</linearGradient>
		<path style="fill:url(#SVGID_00000155136837005652396540000000476209668093963945_);" d="M165.5,235.5c0,0-23.5-6.6-32.7-16.7
			c-9.2-10.1-15-29.3-15-29.3l-6.7-7.1c0,0-18.4-10.4-27.2-15.4c-8.7-5-11.3-12.9-11.3-12.9s4.9,5.6,18.2,9.7c6,1.8,4,0.2,12.8-0.7
			c0,0,6.8-3.8,7.1-5.6c0.2-1.8-3.3-11.9-1.3-15.5c2-3.5,5-5.2,5-5.2s3.1,0.1,4.6,1.3c0,0-3.1,13.2-1.3,17.7c1.8,4.5,5.9,8.2,6.3,10
			c0.4,1.8-0.4,9.4-0.4,9.4s9.2,19,34.7,15.5C167.7,189.5,168.7,228.5,165.5,235.5z"/>
		<path class="st22" d="M172.2,158.7C172.2,158.7,172.2,158.7,172.2,158.7c0.2,0.3,2,3.9,5.1,8.6c6.6,10.2,19,25.9,33.2,26.9
			c1,0.1,2.1,0.1,3.2,0c0,0,0,0,0,0c-0.1-0.2-0.5-1.3-1.2-3.1c-0.9-2-2.2-4.8-4.1-7.8c0,0,0,0,0,0
			C202.2,173.2,190.7,159.9,172.2,158.7z"/>
		
			<linearGradient id="SVGID_00000060731106577110669370000014035433722240368286_" gradientUnits="userSpaceOnUse" x1="454.9363" y1="235.4649" x2="454.9363" y2="162.5129" gradientTransform="matrix(-1 0 0 1 642 0)">
			<stop  offset="1.598750e-02" style="stop-color:#CD706F"/>
			<stop  offset="1" style="stop-color:#DB7766"/>
		</linearGradient>
		<path style="fill:url(#SVGID_00000060731106577110669370000014035433722240368286_);" d="M164.5,234.9c1.9,1.4,6.3-0.1,11.6-3.3
			c7.5-4.5,16.7-12.4,22.8-20.4c5-6.6,9-12.8,11.6-17c0.6-0.9,1-1.7,1.4-2.4c0.2-0.3,0.3-0.5,0.5-0.7c0.8-1.4,1.3-2.2,1.3-2.2
			s-2.1-2.3-5.3-5.6c0,0,0,0,0,0c-7.2-7.3-19.9-19.2-28-20.7c0,0-0.1,0.1-0.3,0.4c-0.4,0.7-1.4,2.4-2.7,4.4c-1.5,2.4-3.3,5.4-5,8.1
			c-1,1.7-2,3.2-2.8,4.5c-3.6,5.9-9,11.5-9,11.5S160,231.6,164.5,234.9z"/>
		
			<radialGradient id="SVGID_00000088848141147395473940000014410275029550573985_" cx="445.8516" cy="2896.6667" r="49.1099" gradientTransform="matrix(-1 0 0 0.7428 642 -2023.3925)" gradientUnits="userSpaceOnUse">
			<stop  offset="5.586610e-03" style="stop-color:#FCBF00"/>
			<stop  offset="1" style="stop-color:#CCAE00"/>
		</radialGradient>
		<path style="fill-rule:evenodd;clip-rule:evenodd;fill:url(#SVGID_00000088848141147395473940000014410275029550573985_);" d="
			M172.2,158.7C172.2,158.7,172.2,158.7,172.2,158.7c0.3,0.1,3.3,1.5,7.7,4.2c8.2,4.9,21.3,14.3,31.9,28.9c0.6,0.8,1.1,1.5,1.7,2.4
			c0,0,0,0,0,0l10.1-11.6l1-76.4c0,0-12,1.2-17,6c0,0-17,17.5-21.5,28C182.4,149,172.2,158.7,172.2,158.7z"/>
		<path class="st17" d="M172.2,158.7c0.2,0.3,2,3.8,5,8.6c-1.5,2.4-3.3,5.4-5,8.1l3.8,56.3c7.5-4.5,16.7-12.4,22.8-20.4
			c5-6.6,9-12.8,11.6-17c1,0.1,2.1,0.1,3.2,0l10.1-11.6l1-76.4c0,0-12,1.2-17,6c0,0-17,17.5-21.5,28
			C182.4,149,172.2,158.7,172.2,158.7C172.2,158.7,172.2,158.7,172.2,158.7z"/>
	</g>
	
		<linearGradient id="SVGID_00000062886984891404326730000009777036283127714457_" gradientUnits="userSpaceOnUse" x1="464.6723" y1="249.5483" x2="464.6723" y2="119.9473" gradientTransform="matrix(-1 0 0 1 642 0)">
		<stop  offset="5.586610e-03" style="stop-color:#3E1B40"/>
		<stop  offset="0.9777" style="stop-color:#3A234D"/>
	</linearGradient>
	<path style="fill-rule:evenodd;clip-rule:evenodd;fill:url(#SVGID_00000062886984891404326730000009777036283127714457_);" d="
		M113,187.7l2.2,2.9c0,0,0,0,0,0.1c0.1,0.3,0.3,1.1,0.6,2.4c0,0.1,0,0.1,0.1,0.3c2.2,8.8,10.1,36.9,26.6,49.7
		c19.7,15.4,68.2,3.2,89.7-36.9c21.4-40,0-86.1,0-86.1s-29.3-0.9-36.6,1.3c-3.5,1-11.9,13.6-19.8,26.5h0
		c-8.7,14.3-16.9,29.1-16.9,29.1l-3.6-3.2l-4.6,8.6c0,0-14.2-4-22.2-7.3l-3.6,1.3l-1.2-1.3C123.7,175.2,115.6,176.1,113,187.7z"/>
	<g>
		
			<linearGradient id="SVGID_00000116196911470137786490000008655803505602250918_" gradientUnits="userSpaceOnUse" x1="376.4624" y1="110.2997" x2="376.4624" y2="39.2731" gradientTransform="matrix(-1 0 0 1 642 0)">
			<stop  offset="1.598750e-02" style="stop-color:#CD706F"/>
			<stop  offset="1" style="stop-color:#DB7766"/>
		</linearGradient>
		<path style="fill:url(#SVGID_00000116196911470137786490000008655803505602250918_);" d="M244.8,95.4c2.2,1.6,6.3,0.7,6.3,0.7
			s-0.1,2.6-0.9,4.8c0,0,27.5,1.5,44.9,9.3c0,0-2.6-7.6-3.4-14.9c-0.2-2.2-0.3-4.5,0-6.4l-4.7-5.8l-35.2-43.9l-9.1,2.5
			c0,0,0,0.7-0.1,1.7c-0.1,2.5-0.4,7.1-1.1,10c-0.2,0.7-0.3,1.4-0.5,1.8c-1.3,2.9-4,6.3-4.8,15C235.3,78.9,242.6,93.8,244.8,95.4z"
			/>
		
			<linearGradient id="SVGID_00000008114808122609021120000003257624771591910028_" gradientUnits="userSpaceOnUse" x1="362.5502" y1="99.4863" x2="362.5502" y2="34.1697" gradientTransform="matrix(-1 0 0 1 642 0)">
			<stop  offset="1.117320e-02" style="stop-color:#A6453D"/>
			<stop  offset="0.9944" style="stop-color:#6F2E45"/>
		</linearGradient>
		<path style="fill:url(#SVGID_00000008114808122609021120000003257624771591910028_);" d="M234.8,42.3l7.8,1.1l0.1,0v-1.7
			c2.2,3.2,3,11.6,3.3,16.1c0.1,1.8,0.1,3,0.1,3s0.9-3.7,2.3-6c0.5-0.8,1-1.4,1.6-1.7c2.3-1,3.9,0.2,3.9,0.2s3.6,10.5,9.3,21.4
			c0.5,0.9,1,1.9,1.7,2.8c6.6,10.3,19.6,21.9,19.6,21.9c1-2.5,5.5-2.9,5.5-2.9c0.6-0.4,1.2-0.7,1.8-1.1c3.7-2.5,6.8-5.5,9.4-8.7
			c9.6-11.9,12.3-26.5,12.3-26.5l3.1,1.5c0-0.4,0-0.8-0.1-1.2c-0.4-5-2.9-11.3-3.1-11.7c3.9,3.3,10.3,6.1,10.7,6.3
			c-3-2.7-5.3-5.7-6.9-8.1c-1.4-2.1-2.2-3.8-2.5-4.3l-0.1-0.1l0,0l-0.1,0c-1-0.3-16.6-5.6-35.2-7.5c-4.2-0.4-8.6-0.7-12.9-0.7
			c-5.9,0-11.1,0.7-15.4,1.7c-1,0.2-2,0.5-2.9,0.7C240,38.9,235.3,42,234.8,42.3L234.8,42.3z"/>
		<path class="st17" d="M242.6,43.5c-0.1,2.5-0.4,7.1-1.1,10l4.4,4.4l0.3,0.4l2.1-3.4l2.7,0.3c0,0,4.5,9,2.3,19.6l11.4,2.8l22.2,5.5
			l14.1,3.5c9.6-11.9,12.3-26.5,12.3-26.5l3.1,1.5c0-0.4,0-0.8-0.1-1.2l-30.7-7l-21.5-14.2l33.3,3l19.7,4.6l-2.5-4.3l-0.1-0.1l0,0
			l-0.1,0c-1-0.3-16.6-5.6-35.2-7.5l-28.3,1l-1.3,0.1l-1.6,0.7l-13.4,5.7l0,0L242.6,43.5z"/>
		<polygon class="st17" points="249.6,73.1 250.9,65.1 249.6,58.1 249,61.5 		"/>
		
			<radialGradient id="SVGID_00000060003511408225520390000017157167431790935991_" cx="366.1251" cy="2754.7209" r="54.6451" gradientTransform="matrix(-1 0 0 0.7428 642 -2023.3925)" gradientUnits="userSpaceOnUse">
			<stop  offset="5.586610e-03" style="stop-color:#B89800"/>
			<stop  offset="1" style="stop-color:#926600"/>
		</radialGradient>
		<path style="fill-rule:evenodd;clip-rule:evenodd;fill:url(#SVGID_00000060003511408225520390000017157167431790935991_);" d="
			M234.8,42.3c0,0,2.9,6.6,8.7,14.8c4.5,6.5,10.8,14,18.8,19.9c18,13.5,36.6,12.2,36.6,12.2c14.1-2.2,15.8-7.4,15.8-7.4l-0.8-5.5
			c0,0,17.1-10.6,9-33.9c-1.6-4.7-3.6-9.1-6-13.2c-9.3-16.4-24-27.7-41-28.5c-21.3-1-37.1,22.1-37.1,22.1l-2.6,2.1
			C234.4,30.8,234.8,42.3,234.8,42.3z"/>
		
			<linearGradient id="SVGID_00000114060821265218647790000014778515658945266605_" gradientUnits="userSpaceOnUse" x1="360.8881" y1="89.2083" x2="360.8881" y2="11.1891" gradientTransform="matrix(-1 0 0 1 642 0)">
			<stop  offset="1.117320e-02" style="stop-color:#BE6888"/>
			<stop  offset="1" style="stop-color:#8E81F4"/>
		</linearGradient>
		<path style="opacity:0.8;fill:url(#SVGID_00000114060821265218647790000014778515658945266605_);" d="M237.2,27.5l6.3,29.6
			c4.5,6.5,10.8,14,18.8,19.9c18,13.5,36.6,12.2,36.6,12.2c14.1-2.2,15.8-7.4,15.8-7.4l-0.8-5.5c0,0,17.1-10.6,9-33.9
			c-1.6-4.7-3.6-9.1-6-13.2l-3.8-4.4c0,0-6-10.6-23.6-13.3c-17.6-2.8-50.7,17-50.7,17L237.2,27.5z"/>
	</g>
	<path class="st4" d="M115.9,193.4c2.2,8.8,10.1,36.9,26.6,49.7c19.7,15.4,68.2,3.2,89.7-36.9c21.4-40,0-86.1,0-86.1
		s-29.3-0.9-36.6,1.3c-3.5,1-11.9,13.6-19.8,26.5c2.1,1.2,13.2,8.6,17.1,32.2c4.3,26.1-25.1,57.5-43.2,57.3
		C133.7,237.2,119,203.6,115.9,193.4z"/>
	<g>
		
			<linearGradient id="SVGID_00000029755177549701622240000001121566376963407249_" gradientUnits="userSpaceOnUse" x1="342.3058" y1="144.8559" x2="342.3058" y2="50.0189" gradientTransform="matrix(-1 0 0 1 642 0)">
			<stop  offset="0" style="stop-color:#7959A6"/>
			<stop  offset="0.3767" style="stop-color:#8E7AC4"/>
			<stop  offset="0.7729" style="stop-color:#A097DD"/>
			<stop  offset="1" style="stop-color:#A7A2E7"/>
		</linearGradient>
		<path style="fill-rule:evenodd;clip-rule:evenodd;fill:url(#SVGID_00000029755177549701622240000001121566376963407249_);" d="
			M195.3,50l15.4,76.1c0,0,0.1,0,0.3-0.1c4.2-1,47.2-10.7,84-5.5c38.7,5.4,77.8,23.8,81.4,24.3c3.6,0.5,17-6.3,23.1-17.1
			c1.4-2.6,2.5-5.4,3.2-8.2c0,0,0,0,0,0c2.3-8.8,1.4-17.9-0.1-22.8c-2.6-8.9-13.1-14.7-13.1-14.7c-13.8-1.2-48.8,5.1-82,2.5
			C274.5,82,231.6,67,216.8,60.2C201.9,53.5,195.3,50,195.3,50z"/>
		
			<linearGradient id="SVGID_00000047742818982789998850000000425632824231075468_" gradientUnits="userSpaceOnUse" x1="382.9065" y1="92.5581" x2="408.5919" y2="92.5581" gradientTransform="matrix(-1 0 0 1 642 0)">
			<stop  offset="2.157410e-02" style="stop-color:#C76834"/>
			<stop  offset="1" style="stop-color:#C96152"/>
		</linearGradient>
		<path style="fill:url(#SVGID_00000047742818982789998850000000425632824231075468_);" d="M234.8,67.3l-1.4-0.5l0.7-2.6l10.7,2.6
			c0,0,25.5,20.7,8.4,52.9l-11.4,1.1C253.2,119.8,262.2,78.6,234.8,67.3z"/>
		
			<linearGradient id="SVGID_00000001654026244462822970000017941209388249780890_" gradientUnits="userSpaceOnUse" x1="305.1953" y1="106.0561" x2="319.1299" y2="106.0561" gradientTransform="matrix(-1 0 0 1 642 0)">
			<stop  offset="2.157410e-02" style="stop-color:#C76834"/>
			<stop  offset="1" style="stop-color:#C96152"/>
		</linearGradient>
		<path style="fill:url(#SVGID_00000001654026244462822970000017941209388249780890_);" d="M322.9,85.2l1.2-2.2l6.6,0.3
			c0,0,12.4,14.1,2,45.9l-8.5-2.5c0,0,9.3-21.4,0-41.5L322.9,85.2z"/>
		
			<linearGradient id="SVGID_00000015350906252745614340000015112121541880988858_" gradientUnits="userSpaceOnUse" x1="335.1383" y1="144.8559" x2="335.1383" y2="88.5535" gradientTransform="matrix(-1 0 0 1 642 0)">
			<stop  offset="1.117320e-02" style="stop-color:#BE6888"/>
			<stop  offset="1" style="stop-color:#8E81F4"/>
		</linearGradient>
		
			<path style="opacity:0.5;fill-rule:evenodd;clip-rule:evenodd;fill:url(#SVGID_00000015350906252745614340000015112121541880988858_);" d="
			M211,126c4.2-1,47.2-10.7,84-5.5c38.7,5.4,77.8,23.8,81.4,24.3c3.6,0.5,17-6.3,23.1-17.1c1.4-2.6,2.5-5.4,3.2-8.2c0,0,0,0,0,0
			c-0.4-0.7-8.8-14.9-55.2-22c-47.6-7.3-97.6-8.9-97.6-8.9c-16.5-0.1-26.2,6.6-26.2,6.6L211,126z"/>
		
			<linearGradient id="SVGID_00000111179362099599456840000016424913102236754326_" gradientUnits="userSpaceOnUse" x1="445.6043" y1="127.6653" x2="445.6043" y2="49.43" gradientTransform="matrix(-1 0 0 1 642 0)">
			<stop  offset="0" style="stop-color:#DBE5FF"/>
			<stop  offset="1" style="stop-color:#FFFFFF"/>
		</linearGradient>
		<path style="fill-rule:evenodd;clip-rule:evenodd;fill:url(#SVGID_00000111179362099599456840000016424913102236754326_);" d="
			M181.2,104.4c0,0-4,1.7-5.1,5c0,0,11.2,14.7,15.4,16.7c4.2,1.9,14.7,2.1,19.2,0c4.4-2.1,15-15.8,12.8-40.4
			c-2.1-23.2-24.9-34.4-28.1-35.7c-4.8-1.9-18.7,0.7-23.1,9.5c-4.4,8.7-3.9,21.8-0.3,30.5C175.5,98.8,181.2,104.4,181.2,104.4z"/>
		
			<linearGradient id="SVGID_00000154425065465516739820000010568032537709329053_" gradientUnits="userSpaceOnUse" x1="445.5348" y1="117.1262" x2="445.5348" y2="55.1283" gradientTransform="matrix(-1 0 0 1 642 0)">
			<stop  offset="1.117320e-02" style="stop-color:#BE6888"/>
			<stop  offset="1" style="stop-color:#8E81F4"/>
		</linearGradient>
		
			<path style="opacity:0.5;fill-rule:evenodd;clip-rule:evenodd;fill:url(#SVGID_00000154425065465516739820000010568032537709329053_);" d="
			M181.2,104.4l3.2,1.8c0,0,7.9,7.9,12.2,8.4c4.3,0.6,14.3-3.1,17-10.2c2.7-7.2,0.6-27.8-3.2-34.7c-3.8-6.9-12.6-11.2-15.1-11.6
			c-4.8-0.8-15.5,0.2-17.2,5.2c-1.7,4.9-1,21.4,3.2,29.3c4.2,7.9,12.3,10.9,14.7,10.9c2.4,0,10.3-5.3,11.3-11.1
			c1-5.9-5.1-24.8-11.3-26.7c-6.1-1.9-11.3,1.3-12.2,3.6c-0.8,2.2,0.1,18.1,2.8,21c3,3.3,8.8,2.1,10,0.7c1.2-1.4-2.6-17.8-2.6-17.8
			l-2.8-1.5l4.1,0.7l3.2-0.8l-2.5,2.6c0,0,2.9,16.9,2.5,18.1c-0.5,1.2-10.3,1.3-12.9-1.2c-2.6-2.5-3.6-19.5-3.2-22.8
			c0.4-3.4,9.9-5.5,14.3-4c7.4,2.6,13,21.6,12.8,28c-0.3,8.9-8.5,15.3-13.3,15.7c-4.8,0.3-13.1-9.2-16.4-14.6
			c-3.3-5.5-4.9-26.6-2.5-31.9c2.4-5.3,11.6-6.9,18-6c3.5,0.5,12.4,6.8,17.1,13.7c4.6,6.8,6.1,28.4,2.5,36.6
			c-2.6,5.9-10.5,12.1-18.7,11.4c-8.2-0.7-15.9-12.1-15.9-12.1L181.2,104.4z"/>
		
			<linearGradient id="SVGID_00000024712316368803852660000011192060784107309241_" gradientUnits="userSpaceOnUse" x1="446.4352" y1="92.7115" x2="446.4352" y2="73.0993" gradientTransform="matrix(-1 0 0 1 642 0)">
			<stop  offset="0" style="stop-color:#BDB3E7"/>
			<stop  offset="0.6458" style="stop-color:#B2AEEB"/>
			<stop  offset="1" style="stop-color:#AAAAEE"/>
		</linearGradient>
		<path style="fill-rule:evenodd;clip-rule:evenodd;fill:url(#SVGID_00000024712316368803852660000011192060784107309241_);" d="
			M194,73.1c0,0-3.1,7.9,0,19c0,0,1.9,1.3,4.5,0.1c0,0,0-11.3-2.5-18.1L194,73.1z"/>
		
			<linearGradient id="SVGID_00000145055220586128533450000003119344371107227539_" gradientUnits="userSpaceOnUse" x1="397.8094" y1="101.3025" x2="397.8094" y2="64.2567" gradientTransform="matrix(-1 0 0 1 642 0)">
			<stop  offset="1.117320e-02" style="stop-color:#BE6888"/>
			<stop  offset="1" style="stop-color:#8E81F4"/>
		</linearGradient>
		
			<path style="opacity:0.5;fill-rule:evenodd;clip-rule:evenodd;fill:url(#SVGID_00000145055220586128533450000003119344371107227539_);" d="
			M234.1,64.3c0,0,23.9,13.3,20.6,37l-1.8-0.1c0,0,3.3-25.3-19.5-34.3L234.1,64.3z"/>
		
			<linearGradient id="SVGID_00000015349590008990924920000014402098873748195758_" gradientUnits="userSpaceOnUse" x1="315.6745" y1="120.118" x2="315.6745" y2="82.9595" gradientTransform="matrix(-1 0 0 1 642 0)">
			<stop  offset="1.117320e-02" style="stop-color:#BE6888"/>
			<stop  offset="1" style="stop-color:#8E81F4"/>
		</linearGradient>
		
			<path style="opacity:0.5;fill-rule:evenodd;clip-rule:evenodd;fill:url(#SVGID_00000015349590008990924920000014402098873748195758_);" d="
			M322.9,85.2l1.2-2.2c0,0,9.5,9.3,3.9,37.2l-1.6-0.6c0,0,5.8-15.2-2.3-34.3L322.9,85.2z"/>
	</g>
	<path class="st4" d="M113,187.7l2.2,2.9c0.2-3.1,9.7-14.1,9.7-14.1l-1.2-1.3C123.7,175.2,115.6,176.1,113,187.7z"/>
	<path class="st39" d="M349.7,313.5c0,0,2.4,4.1,8.8,4.2l1.8-2.8c0,0,4.2,2.3,15.3-9c11.1-11.3,26.2-56.8,24.2-80.9
		c-2-24.1-18.2-40.2-18.2-40.2L361,225L349.7,313.5z"/>
	<path class="st4" d="M158.9,177.1c0,0-8,19.5-1.9,35.5c0,0-11.1-12-1.7-38.6L158.9,177.1z"/>
	
		<linearGradient id="SVGID_00000142898049152346393670000002146688575763004598_" gradientUnits="userSpaceOnUse" x1="336.5655" y1="319.792" x2="336.5655" y2="92.2984" gradientTransform="matrix(-1 0 0 1 642 0)">
		<stop  offset="0" style="stop-color:#A94842"/>
		<stop  offset="0.9784" style="stop-color:#C4786D"/>
	</linearGradient>
	<path style="fill:url(#SVGID_00000142898049152346393670000002146688575763004598_);" d="M221.7,299.2c3.4,3.4,9.3,7.1,14.4,9.9
		c0.2,0.1,0.3,0.2,0.5,0.3c3.9,2.2,7.2,3.7,8.3,4.3l0.2,0.1l0.2,0.1c0,0,0.3,0,0.8,0.1c0.2,0,0.4,0.1,0.7,0.1c0.3,0,0.6,0.1,0.9,0.1
		c0.4,0.1,0.8,0.1,1.1,0.2c10.5,1.6,20.9,2.7,30.8,3.5c0.5,0,1,0.1,1.6,0.1c36.5,2.9,65.5,1.4,65.5,1.4s0,0,0,0c0,0,0-0.1,0.1-0.1
		c16.2-34.5,23.2-77.1,23.2-77.1l6.6-2.9c27.8-77.1,0.8-129,0.8-129c-33.4-13.4-87.3-17.8-109.7-18c-4-0.1-6.9,0.1-8.6,0.3
		c-1.2,0.2-2.6,0.5-4.1,1c-11.8,3.8-29.6,16.8-29.6,16.8C222.4,128.7,221.7,299.2,221.7,299.2z"/>
	
		<linearGradient id="SVGID_00000039104673656364819200000018089384819992380082_" gradientUnits="userSpaceOnUse" x1="359.7373" y1="230.4402" x2="359.7373" y2="92.2984" gradientTransform="matrix(-1 0 0 1 642 0)">
		<stop  offset="1.117320e-02" style="stop-color:#9A5459"/>
		<stop  offset="1" style="stop-color:#C2819F"/>
	</linearGradient>
	<path style="opacity:0.5;fill:url(#SVGID_00000039104673656364819200000018089384819992380082_);" d="M259.1,92.6
		c11,37.3,6.4,137.9,6.4,137.9l39.9-111l-37.7-27.2C263.7,92.3,260.8,92.4,259.1,92.6z"/>
	
		<linearGradient id="SVGID_00000028284009909951468790000003459915184134856892_" gradientUnits="userSpaceOnUse" x1="317.5446" y1="240.2661" x2="317.5446" y2="92.2426" gradientTransform="matrix(-1 0 0 1 642 0)">
		<stop  offset="0" style="stop-color:#A94842"/>
		<stop  offset="0.9784" style="stop-color:#C4786D"/>
	</linearGradient>
	<path style="fill:url(#SVGID_00000028284009909951468790000003459915184134856892_);" d="M376.6,239.3c0,0-59.4,4.1-104.6-4.4
		l-6.5-4.5c0,0,17.4-80.7-6.4-137.9c0,0,55-4.2,118.3,17.7C377.4,110.3,405.9,165.9,376.6,239.3z"/>
	
		<linearGradient id="SVGID_00000048464739409660167360000001624985853431208320_" gradientUnits="userSpaceOnUse" x1="309.5933" y1="211.561" x2="309.5933" y2="142.5993" gradientTransform="matrix(-1 0 0 1 642 0)">
		<stop  offset="0" style="stop-color:#FF8617"/>
		<stop  offset="1" style="stop-color:#FF9D2C"/>
	</linearGradient>
	<path style="fill-rule:evenodd;clip-rule:evenodd;fill:url(#SVGID_00000048464739409660167360000001624985853431208320_);" d="
		M368.4,152.1c0,0-32-9.1-61.5-9.5h-7.2c0,0-2,43.9-3.3,64.7l7.1,1.3c0,0,28.8,4.7,57.7,2.4C361.2,210.9,367.2,187.1,368.4,152.1z"
		/>
	
		<linearGradient id="SVGID_00000076601102190017184480000002729848925068534956_" gradientUnits="userSpaceOnUse" x1="340.3231" y1="208.1549" x2="340.3231" y2="142.5993" gradientTransform="matrix(-1 0 0 1 642 0)">
		<stop  offset="1.117320e-02" style="stop-color:#9A5459"/>
		<stop  offset="1" style="stop-color:#C2819F"/>
	</linearGradient>
	<path style="opacity:0.5;fill:url(#SVGID_00000076601102190017184480000002729848925068534956_);" d="M306.9,142.6
		c0,0,0,40.3-5.6,65.6l-4.9-0.9l3.3-64.7H306.9z"/>
	
		<linearGradient id="SVGID_00000183940022540889527380000007210500672573286787_" gradientUnits="userSpaceOnUse" x1="275.899" y1="160.3315" x2="333.6563" y2="160.3315" gradientTransform="matrix(-1 0 0 1 642 0)">
		<stop  offset="0" style="stop-color:#FFE1C5"/>
		<stop  offset="1" style="stop-color:#A7A9CB"/>
	</linearGradient>
	<path style="fill:url(#SVGID_00000183940022540889527380000007210500672573286787_);" d="M366.1,162.2v3.5c0,0-27.8-6.8-57.8-7.2
		v-3.6C308.3,154.9,338.7,157.6,366.1,162.2z"/>
	
		<linearGradient id="SVGID_00000062872576361872348740000004405919337173711250_" gradientUnits="userSpaceOnUse" x1="317.7256" y1="258.5345" x2="317.7256" y2="234.9316" gradientTransform="matrix(-1 0 0 1 642 0)">
		<stop  offset="1.117320e-02" style="stop-color:#BE6888"/>
		<stop  offset="1" style="stop-color:#8E81F4"/>
	</linearGradient>
	<path style="opacity:0.5;fill:url(#SVGID_00000062872576361872348740000004405919337173711250_);" d="M376.6,239.3
		c0,0-47.9,3.2-104.6-4.4l94.7,23.6l3.3-16.3L376.6,239.3z"/>
	
		<linearGradient id="SVGID_00000180342423741658504340000015192584470302147508_" gradientUnits="userSpaceOnUse" x1="393.0502" y1="315.9635" x2="393.0502" y2="178.615" gradientTransform="matrix(-1 0 0 1 642 0)">
		<stop  offset="1.117320e-02" style="stop-color:#BE6888"/>
		<stop  offset="1" style="stop-color:#C26157"/>
	</linearGradient>
	<path style="opacity:0.6;fill:url(#SVGID_00000180342423741658504340000015192584470302147508_);" d="M245.1,313.7l16.6,2.2
		c0,0,0.6-120.1-9.7-137.3l-15.8,130.5L245.1,313.7z"/>
	
		<linearGradient id="SVGID_00000138542418994062510900000010575555591384488580_" gradientUnits="userSpaceOnUse" x1="271.7581" y1="261.5864" x2="461.9487" y2="261.5864" gradientTransform="matrix(-1 0 0 1 642 0)">
		<stop  offset="5.586610e-03" style="stop-color:#3E1B40"/>
		<stop  offset="0.9777" style="stop-color:#523E63"/>
	</linearGradient>
	<path style="fill-rule:evenodd;clip-rule:evenodd;fill:url(#SVGID_00000138542418994062510900000010575555591384488580_);" d="
		M180.1,243.1l1.5,16.9c0,0,22.1,10.8,72.4,16.5c1.7,0.2,3.4,0.4,5.1,0.6c53.9,5.5,107,1.5,107,1.5l4.1-17.1l-3.6-3l-0.6,2.4
		c0,0-61,1.5-109.5-2.4c-48.6-4-72.7-13.8-72.7-13.8l-0.7-1.6H180.1z"/>
	<g>
		
			<linearGradient id="SVGID_00000177481605743014017130000015054978638791890572_" gradientUnits="userSpaceOnUse" x1="330.3289" y1="321.3451" x2="330.3289" y2="219.4925" gradientTransform="matrix(-1 0 0 1 642 0)">
			<stop  offset="5.586610e-03" style="stop-color:#3E1B40"/>
			<stop  offset="0.9777" style="stop-color:#523E63"/>
		</linearGradient>
		<path style="fill-rule:evenodd;clip-rule:evenodd;fill:url(#SVGID_00000177481605743014017130000015054978638791890572_);" d="
			M332.4,221.2l-14.6-1.7c0,0-4,63.8-24.2,98.8h-2.7v1.5l16.4,1.6C307.3,321.3,322.9,293.9,332.4,221.2z"/>
		
			<linearGradient id="SVGID_00000000180258496063230930000008748668137583330486_" gradientUnits="userSpaceOnUse" x1="324.6473" y1="291.4959" x2="324.6473" y2="241.9496" gradientTransform="matrix(-1 0 0 1 642 0)">
			<stop  offset="5.586610e-03" style="stop-color:#3E1B40"/>
			<stop  offset="0.9777" style="stop-color:#523E63"/>
		</linearGradient>
		
			<polygon style="fill-rule:evenodd;clip-rule:evenodd;fill:url(#SVGID_00000000180258496063230930000008748668137583330486_);" points="
			338.3,245.1 336.6,257.8 332.3,260.3 329.9,278.7 333.9,282.5 332.3,291.5 303.5,288.1 296.4,284.8 297.4,275.7 304,272.5 
			305.8,256.7 300.2,252.5 300.2,243.1 305.4,241.9 		"/>
		
			<linearGradient id="SVGID_00000030467966314643092000000001841309866658963881_" gradientUnits="userSpaceOnUse" x1="338.6388" y1="288.1272" x2="338.6388" y2="241.9496" gradientTransform="matrix(-1 0 0 1 642 0)">
			<stop  offset="1.117320e-02" style="stop-color:#BE6888"/>
			<stop  offset="1" style="stop-color:#8E81F4"/>
		</linearGradient>
		<polygon style="opacity:0.5;fill:url(#SVGID_00000030467966314643092000000001841309866658963881_);" points="306.9,242.2 
			306.9,252.5 310.3,256.4 308.6,274.5 305.4,275.3 303.5,288.1 296.4,284.8 297.4,275.7 304,272.5 305.8,256.7 300.2,252.5 
			300.2,243.1 305.4,241.9 		"/>
		<path class="st52" d="M335.4,258.5c0,0,4.3,9.7-3,22.5l-2.5-2.4l2.4-18.3L335.4,258.5z"/>
		
			<linearGradient id="SVGID_00000050637617326118737330000014491600537111548544_" gradientUnits="userSpaceOnUse" x1="337.8956" y1="275.7885" x2="337.8956" y2="253.7046" gradientTransform="matrix(-1 0 0 1 642 0)">
			<stop  offset="5.586610e-03" style="stop-color:#3E1B40"/>
			<stop  offset="0.9777" style="stop-color:#523E63"/>
		</linearGradient>
		<path style="fill-rule:evenodd;clip-rule:evenodd;fill:url(#SVGID_00000050637617326118737330000014491600537111548544_);" d="
			M309.3,256.2l-2.5-2.5h-5c0,0-4.6,9.6-2.2,20.9l3.7,1.2l4.2-1L309.3,256.2z"/>
		<path class="st52" d="M306.8,253.7c0,0-3.7,10.2-2.7,21.9l3.4-0.8l1.8-18.5L306.8,253.7z"/>
	</g>
	<g>
		
			<linearGradient id="SVGID_00000065042313887503112640000006228935475725947810_" gradientUnits="userSpaceOnUse" x1="425.3022" y1="309.3125" x2="425.3022" y2="142.6063" gradientTransform="matrix(-1 0 0 1 642 0)">
			<stop  offset="5.586590e-03" style="stop-color:#6F1327"/>
			<stop  offset="0.9888" style="stop-color:#863424"/>
		</linearGradient>
		<path style="fill:url(#SVGID_00000065042313887503112640000006228935475725947810_);" d="M213.6,166.9c0,0-34.1,45.9-34.1,51.8
			c0,5.7,8.2,58.1,17.9,72.8c0.4,0.6,0.8,1.1,1.1,1.6c10.1,12.1,35.3,17.4,37.7,16.1c2.4-1.3,12.8-23.5,18.7-61.2
			c3.2-20.5,2.1-63.8-5-73.9c-6.9-9.8-25.2-20-26.3-20.6l-0.1,0l-5.4-1.5c-16.6-10.5-31-9.3-31-9.3c-3.8,3.1-3.4,11.1-3.4,11.1
			l-6.3,2.1c-3.4,16.6,9.7,26.3,9.7,26.3c3.8-5.7,24.2-15.4,24.2-15.4H213.6z"/>
		
			<linearGradient id="SVGID_00000050627585919705847830000014842482923292106641_" gradientUnits="userSpaceOnUse" x1="424.6389" y1="166.8581" x2="424.6389" y2="151.9099" gradientTransform="matrix(-1 0 0 1 642 0)">
			<stop  offset="2.157410e-02" style="stop-color:#C76834"/>
			<stop  offset="1" style="stop-color:#C96152"/>
		</linearGradient>
		<path style="fill:url(#SVGID_00000050627585919705847830000014842482923292106641_);" d="M223.4,153.4c0,0-5.8,1.9-9.8,13.5h-2.3
			c0,0,1.1-9.3,6.7-14.9L223.4,153.4z"/>
		
			<linearGradient id="SVGID_00000015312455774599606350000006542352251377899674_" gradientUnits="userSpaceOnUse" x1="418.9355" y1="309.3125" x2="418.9355" y2="153.4342" gradientTransform="matrix(-1 0 0 1 642 0)">
			<stop  offset="1.117320e-02" style="stop-color:#BE6888"/>
			<stop  offset="1" style="stop-color:#C26157"/>
		</linearGradient>
		<path style="opacity:0.6;fill:url(#SVGID_00000015312455774599606350000006542352251377899674_);" d="M189.6,246.7l7.8,44.7
			c0.4,0.6,0.8,1.1,1.1,1.6c10.1,12.1,35.3,17.4,37.7,16.1c2.4-1.3,12.8-23.5,18.7-61.2c3.2-20.5,2.1-63.8-5-73.9
			c-6.9-9.8-25.2-20-26.3-20.6l18.3,17.9l-5.3,27.4l-18.1,7.3l5.3-23.4l-3.7-26.8l-3.1,4l1.5,12.3l-7,27.3l-8.6,14l-10,3.4
			L189.6,246.7z"/>
		
			<linearGradient id="SVGID_00000177459643324702140360000002254270433126106790_" gradientUnits="userSpaceOnUse" x1="437.5651" y1="198.9886" x2="437.5651" y2="161.3692" gradientTransform="matrix(-1 0 0 1 642 0)">
			<stop  offset="1.117320e-02" style="stop-color:#BE6888"/>
			<stop  offset="1" style="stop-color:#C26157"/>
		</linearGradient>
		<polygon style="opacity:0.6;fill:url(#SVGID_00000177459643324702140360000002254270433126106790_);" points="216,161.4 
			213.6,173.4 202.7,194.2 192.9,199 211.3,171 214,165.7 		"/>
		
			<linearGradient id="SVGID_00000021085892412315459940000004265635058957353119_" gradientUnits="userSpaceOnUse" x1="442.1631" y1="154.4229" x2="442.1631" y2="148.1135" gradientTransform="matrix(-1 0 0 1 642 0)">
			<stop  offset="1.117320e-02" style="stop-color:#BE6888"/>
			<stop  offset="1" style="stop-color:#C26157"/>
		</linearGradient>
		<path style="opacity:0.6;fill:url(#SVGID_00000021085892412315459940000004265635058957353119_);" d="M216,154.4
			c0,0-22.2-4.1-32.3-0.6l0.5-5.7C184.2,148.1,197.7,148.7,216,154.4z"/>
		
			<linearGradient id="SVGID_00000096754584853454042520000017796410533163570109_" gradientUnits="userSpaceOnUse" x1="440.5465" y1="169.4251" x2="440.5465" y2="159.3842" gradientTransform="matrix(-1 0 0 1 642 0)">
			<stop  offset="1.117320e-02" style="stop-color:#BE6888"/>
			<stop  offset="1" style="stop-color:#C26157"/>
		</linearGradient>
		<path style="opacity:0.6;fill:url(#SVGID_00000096754584853454042520000017796410533163570109_);" d="M213.3,159.4l-16.9,0.9
			l-6.9,9.1l2.7-0.5c0,0,7.5-4.6,20-6.4L213.3,159.4z"/>
	</g>
	
		<linearGradient id="SVGID_00000104671096117887155150000003676081482625340831_" gradientUnits="userSpaceOnUse" x1="328.8805" y1="320.2222" x2="328.8805" y2="92.3112" gradientTransform="matrix(-1 0 0 1 642 0)">
		<stop  offset="1.117320e-02" style="stop-color:#BE6888"/>
		<stop  offset="1" style="stop-color:#C26157"/>
	</linearGradient>
	<path style="opacity:0.6;fill:url(#SVGID_00000104671096117887155150000003676081482625340831_);" d="M236.2,309.1L236.2,309.1
		l0.5,0.3l8.3,4.3l0.2,0.1l0.2,0.1c0,0,0.3,0,0.8,0.1c0.2,0,0.4,0.1,0.7,0.1c0.3,0,0.6,0.1,0.9,0.1c4.9,0.7,16.9,2.3,31.9,3.7
		c0.5,0,1,0.1,1.6,0.1c20.1,1.8,45.1,3.2,65.5,1.4c0,0,0,0,0,0c0,0,0-0.1,0.1-0.1c16.2-34.5,23.2-77.1,23.2-77.1l6.6-2.9
		c29.9-77.1,0.8-129,0.8-129c-33.4-13.4-87.3-17.8-109.7-18c0,0,23.2,63.9,7.4,133.6h-8c0,0,12.4-83.7-8.1-133.4l-4.1,1
		C255,93.5,267.2,211.3,236.2,309.1z"/>
	<path class="st52" d="M180.1,243.1l1.5,16.9c0,0,22.1,10.8,72.4,16.5v-15l2.5-3c-48.6-4-72.7-13.8-72.7-13.8l-0.7-1.6H180.1z"/>
	<path class="st61" d="M123.7,175.2H113c0,0,3.8-7.7,11-9.4C124.1,165.7,124.5,171.9,123.7,175.2z"/>
	<path class="st14" d="M174.4,575.6c0,0,1.8,1.9,9.1,3c7.3,1.2,12.7,0,12.7,0l-3.9-6.3C192.4,572.3,187.4,575.1,174.4,575.6z"/>
	<path class="st14" d="M330.3,568.9l2.6,7.6c0,0-16.9,2.6-31.8-3.3c0,0,1.4-0.9,11.6-0.8C326.8,572.6,329.2,569.7,330.3,568.9z"/>
	<path class="st14" d="M233.4,66.8l-19.9-3.4c0,0-13.2-12.7-20.9-14c0,0,2.1-0.1,10.8,3.3C203.5,52.8,224,65.7,233.4,66.8z"/>
	<polygon class="st62" points="244.8,66.8 235.6,65.2 235.6,67.6 232.8,66.8 234,63.8 	"/>
	<path class="st63" d="M35.1,121.8l28.9-7.2l85.7-13.8l-0.3-0.3c-9.8-11-18.4-19.4-22.5-20.2C119.9,78.9,37.3,118.5,35.1,121.8z"/>
	<path class="st63" d="M1.5,155.7l23.2-10.2l31.8,2.6l18.2-26.3l-43.4,3.6c-4.6,3.7-11.3,8.3-11.3,8.3
		C11.6,140.6,4.1,151.7,1.5,155.7z"/>
	<path class="st64" d="M218,151.9l-5.4,1.5c0,0-19.3-5.1-28.5-5.3c0,0-0.4-3.7,2.8-5.5C187.1,142.7,200.8,138.9,218,151.9z"/>
	<path class="st64" d="M209,154.4l-6.8,5l-23.6,4.8c0,0-1.9-4.8-1.2-8.3C177.4,155.9,193.5,150.8,209,154.4z"/>
	<path class="st65" d="M306.9,142.6c0,0,0,40-5.6,65.6l-4.9-0.9l3.3-64.7H306.9z"/>
	
		<linearGradient id="SVGID_00000055670600903142679260000014020583382706265757_" gradientUnits="userSpaceOnUse" x1="269.0713" y1="187.2167" x2="343.0826" y2="187.2167" gradientTransform="matrix(-1 0 0 1 642 0)">
		<stop  offset="1.117320e-02" style="stop-color:#BE6888"/>
		<stop  offset="1" style="stop-color:#C26157"/>
	</linearGradient>
	<path style="opacity:0.6;fill:url(#SVGID_00000055670600903142679260000014020583382706265757_);" d="M367.9,154.9l5,4.5l-6.8,60.1
		c0,0-37.3,0.5-59.5-4.6l-7.7-7.2c0,0,32.1,3.9,62.3,3.2C361.2,210.9,367.6,180.8,367.9,154.9z"/>
	<path class="st14" d="M399.9,91.2l-24.3-6.4h-38c0,0,39.3-4,52-2.7C389.6,82.1,397.1,85.6,399.9,91.2z"/>
	<path class="st67" d="M238.8,22.7l-1,3.5c0,0,11.4,20.3,33,35.9c21.6,15.7,43.1,14.2,43.1,14.2l0.8,5.5c0,0-18.2,1.7-45.5-17.5
		c-27.3-19.2-33-39.5-33-39.5L238.8,22.7z"/>
	<path class="st68" d="M267.7,92.3c0,0,23.8,57.7,7.4,133.6h-8c0,0,12.7-73.9-8.1-133.4l-4.1,1c0,0,8.3,93.8-2,165l2-52.5l-18.4-7.3
		l-18.1,7.3l-7.2-6.7l-8.6,14l-10,3.4l-3.1,30c0,0,16.5,6.2,54.6,10.6l-0.1,18l-8,33.8l9.1,4.7c0,0,48.9,12.9,101.3,5.6
		c0,0,8.1-13.4,14.8-40.5l4.7-0.3l4.1-17.1l-3.6-3l3.3-16.3l6.6-2.9c0,0,30.1-71.8,0.8-129C377.4,110.3,339.7,92,267.7,92.3z"/>
	<path class="st4" d="M160.9,119.2c-0.1,0-0.3,0.1-0.3,0.4C160.5,119.9,160.6,119.8,160.9,119.2z"/>
</g>
<linearGradient id="SVGID_00000181802851560699538310000016849821749541855900_" gradientUnits="userSpaceOnUse" x1="439.6463" y1="609.6307" x2="439.6463" y2="0.63" gradientTransform="matrix(-1 0 0 1 642 0)">
	<stop  offset="0.3352" style="stop-color:#000000"/>
	<stop  offset="1" style="stop-color:#595CD8"/>
</linearGradient>
<path style="opacity:0.3;fill:url(#SVGID_00000181802851560699538310000016849821749541855900_);" d="M0.6,157.2
	c1-0.5,18.6-9.1,23.2-11.2l1-0.4l17.3,1.4c5.1,0.7,10.4,1.5,14.5,2.2c3.8,0.7,10.7,2.6,18.1,4.8l-2,0.1l5.5,4.1
	c-3.8-2.3-5.5-4.1-5.5-4.1s2.5,7.9,11.3,12.9c8.7,5,27.2,15.4,27.2,15.4l2.7,2.8c-0.3,0.8-0.5,1.6-0.7,2.5l2.2,2.9c0,0,0,0,0,0.1
	c0.1,0.3,0.3,1.1,0.6,2.4c0,0.1,0,0.1,0.1,0.3c2.2,8.8,10.1,36.9,26.6,49.7c8.7,6.8,22.9,8.2,38,4.3l1.1,12.7c0,0,1.9,0.9,5.6,2.3
	c2.9,12.1,6.4,23.4,10.2,29.1c0.4,0.6,0.8,1.1,1.1,1.6c5.4,6.4,15,10.9,23.2,13.5l0,0h0c0,0-5,2.2-5,2.7c0,0.5,3.7,6.3,4.7,8
	c0.1,0.2,0.2,0.4,0.3,0.4l0,0v0l0,0c0,0-0.1,0.8-0.3,2.2c-1.9,12.4-11.1,76.5-10.8,111.8c0,0,2.1,17.2,3,33.8
	c0.8,16.6-5.6,55-8.4,60.1c-1.8,2.3-3.9,4.5-5.7,6.3c-2.4,2-4.5,3.6-4.7,4.3c-0.1,0.5,0.4,1.5,1,2.6c1.2,2,2.9,4.4,2.9,4.4
	c-0.1,1.3-0.4,2.9-0.7,4.6c-1.7,8.5-5.6,20.5-5.6,20.5s0.7,1.1,2.1,2.9c-0.6,0.4-1.3,0.8-2,1.1c-0.8,0.4-1.6,0.7-2.5,1
	c-2.7,0.9-7.6,2-15.5,2.3c-8.6,8.4-7.7,21.5-7.7,21.5l-1.3,3.2c11.8,5.9,28,4.2,28,4.2l3.5-1.4c0,0,1.4-0.7,3,0
	c1.6,0.7,3.5,4.2,3.5,4.2c22.6,4.8,40.1,0,40.1,0l-1.1-5.7c0,0,2.8-3.2,2.8-4.9c0-1.3-3-8.8-4.4-12.2c4.7-1.7,7.8-3.3,7.8-3.3
	s-2.2-8.7-1.3-15.2c1-6.5,7-14,7-14l-2.8-3.5c0,0,3.5-5.6,6-10.3c0.8-1.4,1.4-2.8,1.9-3.9c0.4-1.1,0.7-1.9,0.6-2.3l0-0.1
	c0,0,0,0,0,0c-0.8-1.7-8.1-1.7-8.1-1.7l0-0.1l0,0c0.3-0.6,1.8-3.8,2.9-6.4c0.6-1.4,1.1-2.7,1.1-3.3c0.1-0.8-0.2-1.4-0.6-1.8
	c-0.4-0.5-1-0.8-1-0.8s1.2-8.1,1.1-18.3c0-3-0.2-6.2-0.5-9.4c-0.2-2-0.5-4-0.9-6c-0.3-1.5-0.5-3-0.8-4.6c-2.8-16-6.1-37.9-6.1-43.8
	c0-6.5,13.7-81.9,20.4-94.3v0c0,0,0.1-0.1,0.2-0.2c0.1-0.1,0.1-0.1,0.2-0.2c0.2-0.1,0.4-0.4,0.7-0.6c0.1-0.1,0.3-0.2,0.5-0.4
	c0.3-0.2,0.7-0.5,1.1-0.8c0.2-0.2,0.4-0.3,0.7-0.5c0.4-0.3,0.9-0.6,1.4-0.9c0.3-0.2,0.6-0.4,0.9-0.6c0.5-0.3,1.1-0.6,1.7-0.9
	c0.4-0.2,0.7-0.4,1.1-0.6c0.6-0.3,1.3-0.5,2-0.8c0.4-0.2,0.8-0.3,1.2-0.5c0.8-0.2,1.6-0.4,2.4-0.6c0.4-0.1,0.8-0.2,1.2-0.3
	c1.3-0.2,2.6-0.3,3.9-0.3c0,0,0,0.1,0,0.3c4.1,40.1,8.6,65.8,12.6,82.2c1.2,5.1,2.3,9.6,3.5,13c3.6,11.5,6.1,14.3,6.1,14.3
	c0.9,1.7,1.9,3.3,3.1,4.7c4.5,5.6,19.7,25.6,25,55.6c0,0-6.2,7.8-6.5,10.9c0,0.5,0.1,1.2,0.3,2c0.3,1.1,0.9,2.5,1.5,3.9
	c0.1,0.2,0.2,0.4,0.3,0.6c0.2,0.5,0.4,0.9,0.6,1.4c1.4,2.9,2.8,5.6,3.4,6.7c0.1,0.2,0.2,0.4,0.3,0.5l0,0c0,0,0,0,0,0v1.8l-2.9,0.8
	l0,7c0,5.3-0.1,12-0.4,13.7c-0.6,3-5.7,11.4-5.7,11.4s1.5,1.2,4,3c-0.5,0.5-1,0.9-1.7,1.4l0,0c-0.7,0.5-1.6,1.1-2.4,1.5
	c-0.2,0.1-0.3,0.1-0.5,0.2c-0.3,0.2-0.7,0.3-1.1,0.4c-1.5,0.5-3.5,0.9-6.3,1.2c-2.3,0.2-4.9,0.2-7.4,0.3c-4.2,0-6.8,0.1-8.5,0.3
	c-1.3,0.1-2.3,0.2-2.8,0.5c-0.1,0-0.2,0.1-0.2,0.1c-2,1.3-4,12.8-4,12.8l-1.9,2.7c0,0,9.1,8.7,19.1,9.8c5.7,0.6,11.3,0.7,15.3,0.8
	c3,0,5.1,0,5.8,0.3c1.6,0.5,3.4,4.1,3.5,5.2c0.1,1,1.2,3.1,1.2,3.1c14.4,3.7,38.6,0,38.6,0v-6.9c0,0,2.1-2.5,2.1-5.5
	c0-1.7-1.2-8.8-2.2-14.6c6.1-1.8,9.1-4.2,9.1-4.2s-1.9-3.4-2.3-14.9c-0.4-11.6,4.8-19.4,4.6-20c-0.2-0.6-4.6-3.3-4.6-3.3
	s-0.1,0-0.2,0.1c0.7-0.3,1.4-0.7,2-1c2-1.1,3.5-2.3,4.4-3.2c0.5-0.6,0.9-1,1-1.3c0.3-1.7-3.9-2.5-3.9-2.5s2.4-3.7,4.1-7.3
	c0.7-1.4,1.3-2.8,1.6-3.8c0,0,0,0,0,0c0.2-0.8,0.3-1.4,0.3-1.8c-0.5-2.4-5.6-3.4-7.7-4.3c-0.1,0-0.2-0.1-0.3-0.1c0,0-0.1,0-0.1,0
	c-0.1-0.1-0.2-0.2-0.3-0.3c-0.8-0.7-1.7-2.6-2.5-4.8c-0.9-2.5-1.6-5.3-1.8-7.3c-0.4-3.9,0.7-16.9-11.1-34.6
	c-10.9-16.3-22.6-31.1-27.7-42c-0.4-0.9-0.9-1.9-1.3-2.8c-1.3-3.6-3-12.6-4.5-24.2c-2.2-16.6-4.3-38.3-5.2-56.2
	c1.2-1.5,2.7-3.3,3.6-4.6c1.7-2.5,4.2-6.6,4.2-6.6l-0.8,4.1c-3.5,5.2-6.2,12.4-5.2,16.8c1,4.5,4.2,6.2,4.2,6.2l5.8-4.5
	c0.2,1.5,0.7,2.4,0.7,2.4s9-8.2,10.3-10.1c1.2-1.8,1.6-18.6,3.6-27.1l1.8-2.8c0,0,4.2,2.3,15.3-9c11.1-11.3,26.2-56.8,24.2-80.9
	c-1.1-13.5-6.7-24.5-11.3-31.5c0.7-5.2,1.1-10.1,1.3-14.9c0.7-12.2,0.3-25.3-2.3-38.4c4.4-3,9-7.3,12-12.5c1.4-2.6,2.5-5.4,3.2-8.2
	c0,0,0,0,0,0c2.3-8.8,1.4-17.9-0.1-22.8c-0.6-2-1.6-3.9-2.8-5.5l0,0c-2.8-5.5-10.3-9.1-10.3-9.1c-12.7-1.3-52,2.7-52,2.7h3.5
	c-3,0.2-6.1,0.3-9.2,0.3c-0.7-1.2-1.3-1.8-1.3-1.8l-6.6-0.3l-1.2,2.2c-3.7,0-7.4-0.1-11-0.3c2.4-1.6,2.9-3,2.9-3l-0.8-5.5
	c0,0,17.1-10.6,9-33.9c-1.6-4.7-3.6-9.1-6-13.2c-9.3-16.4-24-27.7-41-28.5c-21.3-1-37.1,22.1-37.1,22.1l-2.6,2.1
	c-1.8,6-1.4,17.4-1.4,17.5l0,0l0,0v0c0,0,2.2,5,6.6,11.7c-0.1,0.5-0.3,0.9-0.4,1.3c-1,2.2-2.7,4.7-3.9,9.4l-3.1-0.9l-1.1,2.9
	c-6.8-2.4-12.4-4.7-16.1-6.4c-0.6-0.3-1.1-0.5-1.7-0.8c-6.4-3.4-11.6-6.7-11.6-6.7c-4.6-1.8-7.3-2.6-8.9-3c-0.3-0.1-0.5-0.1-0.8-0.2
	c-0.2,0-0.3-0.1-0.4-0.1c-0.1,0-0.2,0-0.4-0.1c-0.2,0-0.3,0-0.3,0c-6-0.5-16.7,2.5-20.4,10c-4.4,8.7-3.9,21.8-0.3,30.5
	c3.6,8.8,9.3,14.4,9.3,14.4s-0.4,0.2-1,0.5l-0.1,0l0,0c-1.3,0.8-3.3,2.3-4,4.5c0,0,10.1,13.3,14.7,16.3c-2.7,3.3-6.1,8.2-9.6,13.6
	c-9.1-11.8-21-26.7-31.5-38.6l-0.3-0.3c-9.8-11-18.4-19.4-22.5-20.2c-7-1.4-89.7,38.3-91.9,41.5c-0.6,0.9-2,2.2-3.7,3.6
	c-4.6,3.7-11.3,8.3-11.3,8.3c-8.4,7-16,18-18.5,22C1,156.5,0.7,157,0.6,157.2z M337.2,533.4c0.3,0.1,15.3,5.9,27.4,7.8
	C354.4,540.3,337.6,533.6,337.2,533.4z M331.7,331.3c0-0.9,0-1.7-0.1-2.6c0-0.9,0-1.7,0-2.6c2.8-1,4.6-4.4,6.1-5.7
	c1.4-0.1,2.8-0.3,4.3-0.5c-3.3,6.8-9.1,9.8-9.1,9.8C332.5,330.3,332.1,330.8,331.7,331.3z M337.1,533.4
	C337.1,533.4,337.1,533.4,337.1,533.4L337.1,533.4C337.1,533.4,337.1,533.4,337.1,533.4z"/>
<path class="st70" d="M209.1,301.2c4.1,2.3,8.6,4,12.7,5.4c0,0-5,2.2-5,2.7c0,0.5,3.7,6.3,4.7,7.9c0.1,0.2,0.3,0.4,0.3,0.4
	c0,0-0.1,0.8-0.3,2.2c-1.8,12.4-11.1,76.5-10.8,111.8c0,0,2.1,17.2,3,33.8c0.8,16.6-5.6,55-8.4,60.1c-1.8,2.3-3.9,4.5-5.7,6.3
	c-2.4,2-4.6,3.6-4.7,4.3c-0.1,0.5,0.4,1.5,1,2.6c1.2,2.1,3,4.4,3,4.4c-0.1,1.3-0.4,2.9-0.7,4.6c-1.7,8.5-5.6,20.5-5.6,20.5
	s0.7,1.1,2.1,2.9c-0.6,0.4-1.3,0.8-2,1.1c-0.8,0.4-1.6,0.7-2.5,1c-2.6,0.8-7.6,2-15.5,2.3c-8.6,8.4-7.7,21.5-7.7,21.5l-1.3,3.2
	c11.9,5.8,28,4.2,28,4.2l3.5-1.4c0,0,1.4-0.7,3,0c1.6,0.7,3.5,4.2,3.5,4.2c22.6,4.8,40.1,0,40.1,0l-1.1-5.7c0,0,2.8-3.2,2.8-4.9
	c0-1.3-3-8.8-4.4-12.2c4.7-1.7,7.8-3.3,7.8-3.3s-2.2-8.7-1.3-15.2c1-6.5,7-14,7-14l-2.8-3.5c0,0,3.5-5.5,5.9-10.3
	c0.8-1.4,1.4-2.8,1.9-3.9c0.4-1.1,0.7-1.9,0.6-2.3l0-0.1c-0.8-1.7-8.1-1.7-8.1-1.7v0l0,0c0.3-0.6,1.8-3.7,2.9-6.4
	c0.6-1.5,1.1-2.8,1.1-3.3c0-0.8-0.3-1.4-0.6-1.8c-0.4-0.5-1-0.8-1-0.8s1.2-8.1,1.1-18.3c0-3-0.2-6.2-0.5-9.4c-0.2-2-0.5-4-0.8-6.1
	c-0.3-1.5-0.6-3-0.8-4.6c-2.8-16-6.1-37.9-6.1-43.8c0-3.3,3.4-23.7,7.7-44.9c4.3-21.2,9.4-43.2,12.7-49.4c0,0,0.1-0.1,0.2-0.1
	c0-0.1,0.1-0.1,0.2-0.2c0.2-0.1,0.4-0.3,0.7-0.6c0.1-0.1,0.3-0.2,0.4-0.4c0.3-0.2,0.7-0.5,1.1-0.8c0.2-0.2,0.4-0.3,0.7-0.5
	c0.4-0.3,0.9-0.6,1.4-0.9c0.3-0.2,0.6-0.4,0.9-0.6c0.5-0.3,1.1-0.6,1.7-0.9c0.4-0.2,0.7-0.4,1.1-0.6c0.7-0.3,1.4-0.5,2.1-0.8
	c0.4-0.1,0.8-0.3,1.2-0.5c0.8-0.2,1.6-0.4,2.4-0.6c0.4-0.1,0.8-0.2,1.2-0.3c1.3-0.2,2.6-0.3,3.9-0.3c0,0,0,0.1,0,0.4
	c4.1,40.1,8.6,65.8,12.6,82.2c1.2,5.1,2.3,9.5,3.5,13c3.6,11.5,6.1,14.3,6.1,14.3c0.9,1.7,1.9,3.3,3.1,4.7
	c4.5,5.6,19.6,25.6,25,55.6c0,0-6.2,7.8-6.5,10.9c0,0.5,0.1,1.2,0.3,2c0.3,1.1,0.8,2.5,1.5,3.9c0.1,0.2,0.2,0.4,0.3,0.6
	c0.2,0.5,0.4,0.9,0.6,1.4c1.4,2.9,2.8,5.6,3.5,6.7c0.1,0.2,0.2,0.4,0.3,0.5l0,0v1.8l-2.9,0.8v7c0,5.3-0.1,12-0.4,13.7
	c-0.6,3-5.8,11.5-5.8,11.5s1.5,1.2,4,3c-0.5,0.4-1.1,0.9-1.7,1.4l0,0c-0.7,0.5-1.5,1-2.4,1.5c-0.1,0-0.3,0.1-0.5,0.2
	c-0.3,0.2-0.7,0.3-1.1,0.4c-1.5,0.5-3.5,0.9-6.3,1.1c-2.3,0.2-4.9,0.2-7.4,0.3c-4.2,0-6.8,0.1-8.6,0.3c-1.3,0.1-2.3,0.3-2.8,0.5
	c-0.1,0-0.2,0.1-0.2,0.1c-2,1.2-4,12.8-4,12.8l-1.9,2.7c0,0,9.1,8.7,19.1,9.8c5.7,0.6,11.3,0.7,15.3,0.7c3,0,5.1,0,5.8,0.3
	c1.6,0.5,3.3,4.1,3.5,5.1c0.1,1.1,1.2,3.2,1.2,3.2c14.4,3.7,38.5,0,38.5,0v-6.9c0,0,2.1-2.5,2.1-5.5c0-1.7-1.2-8.8-2.2-14.6
	c6.1-1.8,9.1-4.2,9.1-4.2s-1.9-3.4-2.3-14.9c-0.4-11.6,4.8-19.3,4.6-20c-0.2-0.6-4.6-3.3-4.6-3.3s-0.1,0-0.2,0.1
	c0.7-0.3,1.4-0.7,2-1c2-1.1,3.5-2.3,4.4-3.2c0.6-0.6,1-1,1-1.3c0.3-1.7-3.9-2.5-3.9-2.5s2.3-3.7,4.1-7.3c0.7-1.4,1.3-2.8,1.6-3.8
	c0.3-0.8,0.3-1.4,0.3-1.8c-0.6-2.4-5.7-3.4-7.7-4.3c-0.1,0-0.2-0.1-0.3-0.1c0,0-0.1,0-0.1,0c-0.1-0.1-0.2-0.2-0.3-0.3
	c-0.8-0.7-1.7-2.6-2.5-4.8c-0.9-2.5-1.6-5.3-1.8-7.3c-0.4-3.9,0.7-16.9-11.1-34.6c-10.9-16.3-22.7-31.1-27.8-42
	c-0.4-1-0.9-1.9-1.2-2.8c-1.4-3.6-3-12.7-4.5-24.2c-2.2-16.6-4.3-38.3-5.2-56.2c1.2-1.5,2.7-3.3,3.6-4.6c1.7-2.5,4.2-6.6,4.2-6.6
	l-0.8,4.1c-3.5,5.2-6.2,12.3-5.2,16.8c1,4.5,4.2,6.2,4.2,6.2l5.8-4.5c0.2,1.5,0.7,2.4,0.7,2.4s9-8.2,10.3-10.1
	c1.2-1.8,1.6-18.5,3.6-27.1l1.8-2.8c0,0,4.2,2.3,15.3-9c11.1-11.3,26.2-56.8,24.2-80.9c-1.1-13.5-6.7-24.5-11.3-31.5
	c0.7-5.1,1.1-10.1,1.3-14.9l-13.3-19.2l-77.7,26.7l-17.8,4.5l-9.1-4.5l-17,26.4l-6,3.3l-66.9,15.5c0,0-21.2,14.7-31.6,16
	c8.3,2.9,18.9,2.9,29.9,0l1.1,12.7c0,0,1.9,0.9,5.6,2.3c2.9,12.1,6.4,23.4,10.2,29.1c0.4,0.6,0.8,1.1,1.1,1.6
	C201.2,296.2,205,299,209.1,301.2z M339.9,534.4c4.9,1.8,15.6,5.4,24.7,6.8C356.8,540.6,345.1,536.4,339.9,534.4z M331.6,326.1
	c2.8-1,4.6-4.4,6.1-5.7c1.4-0.1,2.9-0.3,4.3-0.4c-3.3,6.8-9.1,9.8-9.1,9.8c-0.4,0.5-0.8,1-1.1,1.4c0-0.9-0.1-1.7-0.1-2.6
	C331.6,327.8,331.6,327,331.6,326.1z"/>
<path class="st4" d="M78.1,158.2l-5.4-4.1C73.1,154.6,74.8,156.2,78.1,158.2z"/>
<path class="st4" d="M72.6,154.1C72.6,154.1,72.6,154.1,72.6,154.1C72.7,154.2,72.7,154.2,72.6,154.1L72.6,154.1z"/>
</svg>
