<svg width="33" height="33" viewBox="0 0 33 33" fill="none" xmlns="http://www.w3.org/2000/svg">
<g clip-path="url(#clip0_1_132)">
<path d="M16.45 32.9C25.5351 32.9 32.9 25.5351 32.9 16.45C32.9 7.36492 25.5351 0 16.45 0C7.36492 0 0 7.36492 0 16.45C0 25.5351 7.36492 32.9 16.45 32.9Z" fill="#361C3A"/>
<path d="M7.59 16.45C7.59 14.6977 8.10961 12.9847 9.08316 11.5276C10.0567 10.0706 11.4405 8.93502 13.0594 8.26442C14.6784 7.59383 16.4598 7.41838 18.1785 7.76024C19.8972 8.10211 21.4759 8.94594 22.715 10.185C23.9541 11.4241 24.7979 13.0028 25.1397 14.7215C25.4816 16.4402 25.3062 18.2216 24.6356 19.8406C23.965 21.4595 22.8294 22.8433 21.3723 23.8168C19.9153 24.7904 18.2023 25.31 16.45 25.31" stroke="#FFFCFC" stroke-width="1.27" stroke-linecap="round" stroke-linejoin="round"/>
<path d="M19.58 21.17L15.61 25.75L21.15 28.2" stroke="#FFFCFC" stroke-width="1.27" stroke-linecap="round" stroke-linejoin="round"/>
</g>
<defs>
<clipPath id="clip0_1_132">
<rect width="32.9" height="32.9" fill="white"/>
</clipPath>
</defs>
</svg>
