<svg width="642" height="649" viewBox="0 0 642 649" fill="none" xmlns="http://www.w3.org/2000/svg">
<g clip-path="url(#clip0_1_5)">
<g style="mix-blend-mode:multiply">
<path d="M642 649L378.683 601.115L303.329 588.069L295.114 588.885L326.325 613.914L407.937 642.439L390.289 649L243.357 607.337L184.71 599.22L165.182 600.329L221.547 627.868L248.828 649H642Z" fill="#AB9DBD"/>
</g>
<path d="M342.37 319.333C341.021 319.117 339.638 319.283 338.378 319.81C336.467 320.688 334.093 326.402 329.886 326.202C329.107 326.123 328.381 325.77 327.839 325.205C327.297 324.641 326.973 323.902 326.926 323.122C326.926 323.122 330.487 321.366 333.646 314.62C336.806 307.873 339.164 304.1 344.96 305.517C344.913 305.486 344.821 315.159 342.37 319.333Z" fill="#90404F"/>
<path d="M346.146 350.491L338.132 356.652C337.042 355.969 336.105 355.07 335.379 354.01C334.652 352.95 334.152 351.753 333.908 350.491C332.922 346.009 335.604 338.832 339.118 333.641L339.92 329.56C339.92 329.56 337.422 333.641 335.742 336.167C334.062 338.693 330.117 343.129 330.117 343.129C329.226 340.837 329.017 338.338 329.514 335.93C330.012 333.523 331.195 331.311 332.922 329.56C335.708 327.987 338.126 325.838 340.013 323.256C341.9 320.674 343.214 317.719 343.865 314.589L349.938 316.914L351.202 336.722L346.146 350.491Z" fill="#90404F"/>
<path d="M348.813 341.157C341.261 348.273 344.605 354.65 344.605 354.65C344.605 354.65 353.653 346.425 354.947 344.531C356.242 342.636 356.489 324.508 358.801 316.36C361.113 308.212 371.455 288.806 380.749 266.888C383.429 260.503 385.78 253.984 387.792 247.358C390.018 240.217 391.795 232.943 393.11 225.58L386.636 201.167C371.701 196.285 348.397 201.167 348.397 201.167L364.842 231.556C355.595 243.878 353.622 261.79 353.067 276.222C352.697 285.679 352.882 293.703 351.973 297.862C350.701 304.004 347.908 309.728 343.85 314.512L345.237 319.132C345.149 322.536 345.796 325.919 347.133 329.051C348.544 332.922 349.117 337.049 348.813 341.157V341.157Z" fill="url(#paint0_linear_1_5)"/>
<path fill-rule="evenodd" clip-rule="evenodd" d="M194.544 536.133C194.297 537.535 198.52 543.156 198.52 543.156C198.52 543.156 220.438 554.955 228.576 555.232C236.714 555.509 251.356 548.47 251.356 548.47C251.356 548.47 260.265 534.239 259.833 532.036V531.913C259.001 530.234 251.695 530.234 251.695 530.234V530.142C252.127 529.248 255.579 522.102 255.734 520.392C255.767 519.862 255.637 519.334 255.361 518.88C255.086 518.426 254.678 518.067 254.192 517.851C254.192 517.851 256.874 500.077 253.915 484.058C250.955 468.04 246.963 442.134 246.963 435.588C246.963 429.042 260.666 353.633 267.432 341.157C267.956 340.711 276.171 333.256 286.822 333.256C286.822 333.256 295.807 414.749 304.516 432.754C304.516 432.754 307.598 442.288 312.222 447.91C324.97 464.168 333.533 483.301 337.161 503.635C337.161 503.635 330.996 511.428 330.687 514.539C330.695 515.223 330.798 515.902 330.995 516.557C332.694 521.095 334.755 525.488 337.161 529.695V529.787V533.422C337.161 533.422 358.816 541.863 371.208 541.863C383.6 541.863 392.278 534.839 392.586 533.145C392.894 531.451 388.64 530.619 388.64 530.619C388.64 530.619 393.264 523.334 394.42 519.499C394.634 518.918 394.728 518.3 394.698 517.681C394.143 515.309 389.026 514.293 386.991 513.353C386.875 513.308 386.762 513.256 386.652 513.199C384.941 512.214 382.429 504.759 382.028 500.878C381.627 496.996 382.706 483.935 370.9 466.254C359.093 448.572 346.069 432.523 341.846 421.372C337.623 410.221 330.718 344.361 331.751 318.07L221.547 306.41C221.547 306.41 216.523 308.628 216.492 309.121C218.035 312.007 219.723 314.813 221.547 317.531C221.547 317.531 210.018 392.308 210.435 431.506C210.435 431.506 212.546 448.741 213.409 465.391C214.272 482.041 207.783 520.485 204.963 525.552C202.142 530.619 194.852 534.731 194.544 536.133Z" fill="url(#paint1_linear_1_5)"/>
<g style="mix-blend-mode:multiply">
<path d="M198.505 543.156C198.505 543.156 220.438 554.955 228.591 555.232C236.745 555.509 251.372 548.486 251.372 548.486C251.372 548.486 260.249 534.239 259.833 532.021V531.913C259.833 531.913 246.763 537.612 226.834 538.074C226.834 538.074 242.679 535.548 251.68 530.28C252.096 529.387 255.564 522.24 255.687 520.531C255.722 520.002 255.592 519.476 255.316 519.024C255.041 518.572 254.632 518.216 254.146 518.005C254.146 518.005 256.812 500.215 253.853 484.12C250.894 468.025 246.902 442.18 246.902 435.65C246.902 429.119 260.604 353.679 267.355 341.219C267.355 341.219 275.786 333.287 286.76 333.287L306.797 347.888C306.797 347.888 313.609 438.484 317.232 440.116C320.854 441.749 344.975 468.241 348.289 475.664C351.603 483.088 356.304 518.79 356.304 518.79C356.304 518.79 337.808 518.328 330.579 514.647L330.888 516.634C332.182 521.255 337.053 529.864 337.053 529.864V533.515C337.053 533.515 358.708 541.94 371.085 541.94C383.462 541.94 392.17 534.932 392.463 533.237C392.756 531.543 388.517 530.712 388.517 530.712C388.517 530.712 393.141 523.442 394.312 519.576C388.721 522.398 382.585 523.974 376.325 524.196C376.325 524.196 382.891 517.928 386.899 513.415L386.56 513.246C384.864 512.275 382.336 504.821 381.936 500.924C381.535 497.027 382.614 483.981 370.792 466.284C358.97 448.587 345.977 432.554 341.754 421.403C337.531 410.251 330.626 344.392 331.658 318.1L221.455 306.441C221.455 306.441 216.446 308.659 216.415 309.167C216.384 309.675 221.162 317.084 221.44 317.561L231.859 331.084C231.859 331.084 214.411 408.095 221.44 441.841L229.747 470.489C229.747 470.489 232.229 520.546 219.852 529.295C216.584 531.605 194.451 536.241 194.451 536.241C194.282 537.519 198.505 543.156 198.505 543.156Z" fill="#543160"/>
</g>
<path d="M165.12 600.329C176.957 606.198 193.187 604.519 193.187 604.519L196.671 603.102C197.14 602.899 197.646 602.794 198.158 602.794C198.67 602.794 199.176 602.899 199.645 603.102C201.187 603.795 203.113 607.337 203.113 607.337C216.347 610.267 230.062 610.267 243.295 607.337L242.201 601.592L241.923 600.206L189.057 598.034L166.384 597.11L165.12 600.329Z" fill="url(#paint2_linear_1_5)"/>
<path d="M295.129 588.885C295.129 588.885 304.254 597.603 314.241 598.712C319.96 599.359 325.555 599.421 329.654 599.482C331.6 599.394 333.55 599.482 335.481 599.744C337.022 600.268 338.856 603.841 338.949 604.904C339.22 605.972 339.613 607.005 340.12 607.984C354.562 611.681 378.76 607.984 378.76 607.984V600.052L328.021 591.427L297.025 586.128L295.129 588.885Z" fill="url(#paint3_linear_1_5)"/>
<path fill-rule="evenodd" clip-rule="evenodd" d="M297.01 586.144H297.087C310.588 597.249 332.644 596.417 332.644 596.417L336.436 598.096L340.659 601.669C358.785 605.258 378.653 601.053 378.653 601.053C379.889 599.48 380.615 597.567 380.733 595.57C380.733 593.86 379.546 586.745 378.529 581C377.774 576.733 377.127 573.298 377.127 573.298C373.119 571.142 362.638 568.909 353.113 567.138C343.588 565.366 334.88 564.242 334.88 564.242C334.041 565.428 333.074 566.517 331.997 567.492C331.474 567.98 330.923 568.437 330.348 568.863V568.863C328.703 570.125 326.813 571.032 324.799 571.527C318.634 572.929 303.005 571.943 301.048 573.206C299.09 574.469 297.01 586.144 297.01 586.144Z" fill="url(#paint4_linear_1_5)"/>
<path fill-rule="evenodd" clip-rule="evenodd" d="M166.446 597.11L166.877 597.28C169.02 598.127 178.437 601.685 186.097 601.315C194.821 600.899 199.969 600.191 199.969 600.191L202.081 601.577C219.929 604.95 242.324 601.577 242.324 601.577C242.324 601.577 245.099 598.358 245.099 596.679C245.099 595.385 242.016 587.823 240.706 584.48C240.29 583.51 240.043 582.94 240.043 582.94C233.153 579.706 194.621 571.004 194.621 571.004L194.297 571.204C193.64 571.624 192.955 572 192.247 572.328C184.88 575.747 174.229 575.64 174.229 575.64C165.598 584.049 166.446 597.11 166.446 597.11Z" fill="url(#paint5_linear_1_5)"/>
<path fill-rule="evenodd" clip-rule="evenodd" d="M328.021 564.565C328.021 564.565 329.562 565.767 332.028 567.553L332.228 567.692C339.642 572.99 355.225 583.094 365.998 582.879C370.247 582.823 374.47 582.212 378.56 581.061C381.869 580.222 385.001 578.798 387.808 576.856C387.808 576.856 385.897 573.483 385.511 561.901C385.126 550.319 390.32 542.51 390.135 541.878C389.95 541.247 385.511 538.567 385.511 538.567C382.036 539.592 378.485 540.338 374.892 540.8C372.183 541.148 369.454 541.323 366.723 541.324C356.751 541.247 337.268 533.376 337.268 533.376V531.482L334.309 532.329V539.368C334.309 544.697 334.201 551.366 333.878 553.122C333.23 556.14 328.021 564.565 328.021 564.565Z" fill="url(#paint6_linear_1_5)"/>
<path fill-rule="evenodd" clip-rule="evenodd" d="M192.17 568.324C192.17 568.324 192.894 569.479 194.235 571.219C198.243 576.487 207.66 587.16 218.758 588.008C226.211 588.322 233.653 587.143 240.644 584.542C243.281 583.621 245.855 582.53 248.351 581.277C248.351 581.277 246.116 572.559 247.087 566.106C248.058 559.652 254.13 552.059 254.13 552.059L251.31 548.532C251.31 548.532 236.113 554.693 228.391 554.292C225.758 553.992 223.17 553.376 220.684 552.459V552.459C213.144 549.769 205.751 546.684 198.536 543.218C198.376 544.77 198.134 546.312 197.811 547.839C196.069 556.325 192.17 568.324 192.17 568.324Z" fill="url(#paint7_linear_1_5)"/>
<path style="mix-blend-mode:multiply" opacity="0.6" d="M211.159 291.193L221.547 306.302L258.986 322.136L267.401 341.157C267.91 340.695 276.156 333.241 286.791 333.241L308.369 331.392L298.921 329.021L331.797 317.977L211.159 291.193Z" fill="url(#paint8_linear_1_5)"/>
<g style="mix-blend-mode:multiply">
<path d="M297.04 586.175C305.317 595.693 328.021 597.926 328.021 597.926L329.562 599.467C331.508 599.379 333.458 599.466 335.388 599.729C336.929 600.252 338.764 603.826 338.856 604.888C339.128 605.956 339.521 606.99 340.027 607.969C354.469 611.665 378.668 607.969 378.668 607.969V601.022C379.905 599.449 380.631 597.536 380.749 595.539C380.749 593.83 379.562 586.714 378.545 580.969C381.854 580.13 384.986 578.706 387.792 576.764C387.792 576.764 385.881 573.391 385.496 561.809C385.111 550.226 390.305 542.417 390.12 541.786C389.935 541.154 385.496 538.474 385.496 538.474C382.021 539.499 378.47 540.246 374.876 540.708V540.708L371.285 541.709L367.047 543.064C356.781 543.434 350.246 543.064 340.752 539.537L334.294 532.236V539.275L351.248 559.775L353.283 567.107L356.257 577.888C348.096 575.009 340.157 571.535 332.506 567.492L332.367 567.584L330.518 568.816L331.566 570.85L333.107 576.471L328.206 591.319C307.491 591.673 298.351 586.698 297.38 586.082L297.04 586.175Z" fill="#543160"/>
</g>
<g style="mix-blend-mode:multiply">
<path d="M166.461 597.126C166.754 597.48 172.087 603.194 193.249 604.519L196.732 603.102C197.202 602.899 197.708 602.794 198.22 602.794C198.731 602.794 199.237 602.899 199.707 603.102C201.248 603.795 203.175 607.337 203.175 607.337C216.408 610.267 230.123 610.267 243.357 607.337L242.262 601.592C242.262 601.592 245.037 598.373 245.037 596.694C245.037 595.401 241.954 587.838 240.644 584.496C243.281 583.575 245.855 582.484 248.351 581.231C248.351 581.231 246.116 572.513 247.087 566.06C248.058 559.606 254.13 552.013 254.13 552.013L251.31 548.486C251.31 548.486 236.113 554.646 228.391 554.246C225.758 553.945 223.17 553.33 220.684 552.413V552.413L197.75 547.793C196.039 556.341 192.139 568.293 192.139 568.293C192.139 568.293 192.864 569.448 194.204 571.188C193.547 571.609 192.862 571.984 192.155 572.313L201.279 587.053L199.877 595.154L189.087 598.05L184.679 599.236C184.679 599.236 172.688 599.498 166.862 597.31L166.461 597.126Z" fill="#543160"/>
</g>
<path style="mix-blend-mode:multiply" opacity="0.6" d="M331.026 516.542L337.114 529.649V529.741V533.376C337.114 533.376 358.77 541.816 371.162 541.816C383.554 541.816 392.232 534.793 392.54 533.099C392.54 533.099 384.833 537.011 367.971 535.486C367.971 535.486 383.169 532.529 388.594 530.573C388.594 530.573 393.218 523.288 394.374 519.453C394.374 519.453 388.44 524.612 366.445 525.614C345.175 526.476 331.812 517.096 331.026 516.542Z" fill="url(#paint9_linear_1_5)"/>
<path style="mix-blend-mode:multiply" opacity="0.6" d="M194.544 536.133C194.297 537.535 198.52 543.156 198.52 543.156C198.52 543.156 220.438 554.955 228.576 555.232C236.714 555.509 251.356 548.47 251.356 548.47C251.356 548.47 260.265 534.239 259.833 532.036V531.913C259.833 531.913 248.613 539.429 229.67 540.708C217.778 541.386 205.864 539.835 194.544 536.133Z" fill="url(#paint10_linear_1_5)"/>
<g style="mix-blend-mode:soft-light">
<path d="M204.963 525.459C204.963 525.459 219.22 523.38 226.341 517.758C224.646 522.301 221.689 526.266 217.817 529.187C211.837 533.238 194.544 536.149 194.544 536.149C198.331 532.906 201.818 529.328 204.963 525.459V525.459Z" fill="#E0FFFF"/>
</g>
<g style="mix-blend-mode:soft-light">
<path d="M337.161 503.635L338.887 506.623C338.887 506.623 341.677 515.864 356.411 518.698C356.411 518.698 342.663 519.268 330.687 514.555C332.26 510.599 334.444 506.914 337.161 503.635V503.635Z" fill="#E0FFFF"/>
</g>
<g style="mix-blend-mode:soft-light">
<path d="M210.435 431.491C210.435 431.491 219.143 352.94 232.013 330.961L221.578 317.423C221.578 317.423 210.435 392.031 210.435 431.491Z" fill="#E0FFFF"/>
</g>
<g style="mix-blend-mode:soft-light">
<path d="M306.92 347.827C306.92 347.827 298.69 400.456 309.063 443.181C309.063 443.181 296.501 429.088 286.822 333.225L306.92 347.827Z" fill="#E0FFFF"/>
</g>
<path style="mix-blend-mode:multiply" opacity="0.3" d="M348.397 435.48C337.781 437.613 326.897 438.081 316.137 436.866L338.733 434.094L343.557 426.393L348.397 435.48Z" fill="url(#paint11_linear_1_5)"/>
<path style="mix-blend-mode:multiply" opacity="0.3" d="M246.948 435.588L241.954 439.038C234.819 438.045 227.845 436.124 221.208 433.324C221.208 433.324 228.391 440.886 242.648 445.476L246.948 441.795V435.588Z" fill="url(#paint12_linear_1_5)"/>
<g style="mix-blend-mode:multiply" opacity="0.5">
<path fill-rule="evenodd" clip-rule="evenodd" d="M364.842 231.556C355.595 243.878 353.622 261.79 353.067 276.222L387.792 247.281C390.018 240.14 391.795 232.866 393.11 225.503L386.636 201.09C371.701 196.208 348.397 201.09 348.397 201.09L364.842 231.556Z" fill="#9A5459"/>
</g>
<path fill-rule="evenodd" clip-rule="evenodd" d="M103.252 162.616L97.4105 152.62L72.1948 153.621L77.8359 157.872L95.0061 169.162L103.252 162.616Z" fill="#CC5268"/>
<path fill-rule="evenodd" clip-rule="evenodd" d="M0 156.717C0.986436 156.239 18.6806 147.599 23.2121 145.504L24.1677 145.057C25.709 144.441 45.1294 146.598 56.0573 148.708C66.9851 150.818 103.237 162.57 103.237 162.57C109.679 164.633 145.099 210.024 145.099 210.024L168.788 212.072L196.147 158.858C196.147 158.858 170.145 123.679 149.337 100.191L149.075 99.8675C139.257 88.8396 130.687 80.4608 126.557 79.6599C119.574 78.2891 36.7448 117.98 34.5407 121.246C33.4297 122.601 32.168 123.826 30.7799 124.896C26.156 128.608 19.4976 133.167 19.4976 133.167C11.0358 140.144 3.4988 151.203 1.00189 155.207C0.400777 156.054 0.0770653 156.563 0 156.717Z" fill="url(#paint13_linear_1_5)"/>
<g style="mix-blend-mode:multiply" opacity="0.2">
<path fill-rule="evenodd" clip-rule="evenodd" d="M118.619 137.587L165.012 148.138L146.701 149.755L166.877 187.028L160.851 200.228L115.721 178.187L113.702 149.755L118.619 137.587Z" fill="#CF7A79"/>
</g>
<path d="M165.228 235.098C165.228 235.098 141.646 228.506 132.429 218.402C123.212 208.299 117.432 189.138 117.432 189.138L110.681 182.069C110.681 182.069 92.1855 171.626 83.4772 166.667C78.3262 163.788 74.3376 159.208 72.1948 153.713C72.1948 153.713 77.127 159.32 90.413 163.401C96.4395 165.25 94.405 163.617 103.252 162.708C103.252 162.708 110.111 158.873 110.327 157.102C110.542 155.331 107.044 145.165 109.001 141.623C110.203 139.482 111.933 137.685 114.026 136.401C115.649 136.441 117.237 136.88 118.65 137.68C118.65 137.68 115.567 150.864 117.401 155.392C119.235 159.92 123.366 163.617 123.736 165.404C123.837 168.556 123.713 171.711 123.366 174.845C123.366 174.845 132.614 193.913 158.122 190.417C167.37 189.046 168.465 228.152 165.228 235.098Z" fill="url(#paint14_linear_1_5)"/>
<path fill-rule="evenodd" clip-rule="evenodd" d="M171.933 158.272C173.467 161.22 175.149 164.089 176.973 166.867C183.585 177.048 196.023 192.789 210.219 193.805C211.274 193.913 212.338 193.913 213.394 193.805C213.394 193.805 213.394 193.805 213.394 193.805C213.03 192.758 212.614 191.73 212.145 190.725C210.948 188.029 209.584 185.411 208.061 182.885C208.061 182.885 208.061 182.885 208.061 182.885C201.988 172.812 190.505 159.412 171.933 158.272Z" fill="#988100"/>
<path d="M164.18 234.575C166.06 235.976 170.515 234.498 175.817 231.325C184.574 225.912 192.302 218.992 198.644 210.886C203.637 204.279 207.66 198.041 210.234 193.821C210.789 192.927 211.282 192.111 211.683 191.433C211.852 191.156 212.007 190.91 212.13 190.678C212.962 189.262 213.409 188.476 213.409 188.476C213.409 188.476 211.298 186.135 208.045 182.839C200.863 175.538 188.086 163.632 179.978 162.108L179.716 162.508L177.019 166.913L172.056 174.984C171.023 176.647 170.068 178.218 169.251 179.512C166.617 183.616 163.614 187.473 160.28 191.033C160.28 191.033 159.695 231.202 164.18 234.575Z" fill="url(#paint15_linear_1_5)"/>
<path fill-rule="evenodd" clip-rule="evenodd" d="M171.933 158.272C174.584 159.513 177.157 160.912 179.639 162.462C192.093 169.936 202.963 179.773 211.637 191.418C212.222 192.188 212.777 192.958 213.332 193.774L223.489 182.177L224.522 105.659C224.522 105.659 212.469 106.845 207.46 111.619C207.46 111.619 190.413 129.147 185.881 139.62C182.151 148.538 171.933 158.272 171.933 158.272Z" fill="url(#paint16_radial_1_5)"/>
<g style="mix-blend-mode:multiply" opacity="0.5">
<path fill-rule="evenodd" clip-rule="evenodd" d="M171.948 158.288C173.482 161.236 175.164 164.104 176.988 166.882L172.025 174.953L175.817 231.325C184.574 225.912 192.302 218.992 198.643 210.886C203.637 204.279 207.66 198.041 210.234 193.821C211.29 193.928 212.354 193.928 213.409 193.821L223.566 182.223L224.599 105.705C224.599 105.705 212.546 106.891 207.537 111.666C207.537 111.666 190.49 129.193 185.959 139.667C182.136 148.538 171.917 158.272 171.917 158.272L171.948 158.288Z" fill="#9A5459"/>
</g>
<path fill-rule="evenodd" clip-rule="evenodd" d="M112.716 187.29L114.92 190.201V190.278C114.92 190.524 115.182 191.372 115.475 192.696C115.458 192.783 115.458 192.872 115.475 192.958C117.632 201.814 125.616 229.923 142.139 242.753C161.883 258.155 210.512 245.911 231.951 205.788C253.391 165.665 231.951 119.536 231.951 119.536C231.951 119.536 202.666 118.658 195.314 120.861C191.862 121.893 183.4 134.492 175.524 147.429C166.769 161.769 158.57 176.539 158.57 176.539L154.994 173.382L150.37 182.022C150.37 182.022 136.097 178.018 128.067 174.676L124.507 175.985L123.289 174.676C123.289 174.676 115.213 175.677 112.716 187.29Z" fill="url(#paint17_linear_1_5)"/>
<path d="M244.621 94.8618C246.825 96.402 250.94 95.6011 250.94 95.6011C250.859 97.2497 250.542 98.8784 250 100.437C250 100.437 277.527 101.978 294.96 109.802C293.336 104.953 292.205 99.9526 291.584 94.8772C291.337 92.7382 291.337 90.578 291.584 88.4391L286.96 82.6171L251.711 38.6902L242.571 41.2161C242.571 41.2161 242.571 41.8784 242.571 42.8949C242.431 46.2419 242.071 49.576 241.492 52.8755C241.372 53.5025 241.191 54.1163 240.952 54.7084C239.611 57.6656 236.945 61.0387 236.097 69.6793C235.25 78.3199 242.401 93.2908 244.621 94.8618Z" fill="url(#paint18_linear_1_5)"/>
<path d="M234.633 41.7398L242.447 42.8949V41.2007C244.652 44.4198 245.438 52.7677 245.7 57.2959C245.807 59.1134 245.823 60.3764 245.823 60.3764C246.351 58.2818 247.132 56.2595 248.15 54.3541C248.496 53.653 249.03 53.0613 249.692 52.6445C250.305 52.3535 250.983 52.2208 251.661 52.2585C252.34 52.2961 252.998 52.503 253.576 52.8601C256.166 60.2037 259.256 67.3618 262.823 74.2845C263.317 75.2086 263.871 76.1636 264.473 77.1339C271.054 87.4379 284.124 99.0203 284.124 99.0203C285.172 96.4944 289.596 96.0632 289.596 96.0632C290.228 95.6935 290.829 95.3239 291.43 94.9234C295.006 92.505 298.197 89.5608 300.894 86.1904C306.932 78.356 311.144 69.2739 313.224 59.6063L316.307 61.1465C316.307 60.7614 316.307 60.361 316.307 59.9759C315.793 55.9617 314.757 52.0316 313.224 48.2857C316.56 50.807 320.181 52.9265 324.013 54.6006C321.381 52.1913 319.07 49.4529 317.139 46.4529C316.208 45.075 315.373 43.634 314.642 42.1402V42.0016C303.185 38.2897 291.38 35.7558 279.408 34.4392C275.107 33.984 270.786 33.7475 266.461 33.7307C261.276 33.7205 256.106 34.2888 251.048 35.4249C250.015 35.656 249.029 35.9024 248.104 36.1642C243.379 37.3753 238.867 39.3024 234.726 41.8784L234.633 41.7398Z" fill="url(#paint19_linear_1_5)"/>
<g style="mix-blend-mode:multiply" opacity="0.5">
<path fill-rule="evenodd" clip-rule="evenodd" d="M242.447 42.8949C242.308 46.2419 241.947 49.576 241.368 52.8755L245.761 57.3114L246.1 57.6656L248.212 54.3079L250.878 54.6468C253.62 60.7917 254.426 67.6246 253.19 74.2383L264.627 77.0877L286.899 82.6171L301.048 86.1442C307.086 78.3098 311.298 69.2278 313.378 59.5601L316.461 61.1003C316.461 60.7152 316.461 60.3148 316.461 59.9297L285.635 52.9372L264.056 38.7518L297.38 41.8322L317.124 46.4529L314.627 42.1402V42.0016C303.17 38.2897 291.364 35.7558 279.393 34.4392L251.017 35.4249H249.707L248.073 36.118L234.695 41.8322L242.447 42.8949Z" fill="#9A5459"/>
</g>
<g style="mix-blend-mode:multiply" opacity="0.5">
<path fill-rule="evenodd" clip-rule="evenodd" d="M249.507 72.5441L250.74 64.5042L249.507 57.5578L248.828 60.9309L249.507 72.5441Z" fill="#9A5459"/>
</g>
<path fill-rule="evenodd" clip-rule="evenodd" d="M234.633 41.7398C237.087 46.9125 239.991 51.8601 243.311 56.5259C248.484 64.158 254.842 70.917 262.145 76.5486C272.7 84.5491 285.612 88.8233 298.859 88.701C312.978 86.4985 314.704 81.3233 314.704 81.3233L313.856 75.7632C313.856 75.7632 330.995 65.1511 322.873 41.8014C321.29 37.2296 319.282 32.8156 316.877 28.6172C307.537 12.1831 292.817 0.893354 275.801 0.0924432C254.501 -0.86249 238.64 22.1791 238.64 22.1791L236.005 24.243C234.201 30.1728 234.633 41.7398 234.633 41.7398Z" fill="url(#paint20_radial_1_5)"/>
<path style="mix-blend-mode:multiply" opacity="0.8" d="M237.007 26.9229L243.31 56.5259C248.484 64.1579 254.842 70.917 262.145 76.5486C272.699 84.5491 285.612 88.8233 298.859 88.7009C312.978 86.4984 314.704 81.3233 314.704 81.3233L313.856 75.7632C313.856 75.7632 330.995 65.1511 322.873 41.8014C321.29 37.2296 319.282 32.8156 316.877 28.6172L313.085 24.243C313.085 24.243 307.059 13.6155 289.473 10.9047C271.886 8.19394 238.61 27.8471 238.61 27.8471L237.007 26.9229Z" fill="url(#paint21_linear_1_5)"/>
<g style="mix-blend-mode:multiply">
<path d="M115.475 192.958C117.632 201.814 125.616 229.923 142.139 242.753C161.883 258.155 210.511 245.911 231.951 205.788C253.391 165.665 231.951 119.536 231.951 119.536C231.951 119.536 202.666 118.658 195.314 120.861C191.862 121.893 183.4 134.492 175.524 147.429C177.589 148.615 188.779 156.039 192.663 179.666C196.933 205.757 167.555 237.224 149.337 237.008C133.308 236.87 118.588 203.17 115.475 192.958Z" fill="#543160"/>
</g>
<path fill-rule="evenodd" clip-rule="evenodd" d="M195.037 49.4408L210.45 125.651L210.789 125.558C215.028 124.588 258.092 114.854 294.96 120.013C333.77 125.466 372.857 143.841 376.526 144.364C380.194 144.888 393.603 138.08 399.645 127.191C401.065 124.603 402.148 121.844 402.866 118.982V118.982C404.762 111.506 404.762 103.677 402.866 96.2018C400.231 87.3147 389.781 81.539 389.781 81.539C376.002 80.2914 340.844 86.6216 307.66 84.0495C274.476 81.4773 231.458 66.4294 216.615 59.6987C201.772 52.9679 195.037 49.4408 195.037 49.4408Z" fill="url(#paint22_linear_1_5)"/>
<path d="M234.633 66.7683L233.246 66.2754L233.939 63.7032L244.621 66.2754C244.621 66.2754 270.206 87.0221 253.067 119.259L241.646 120.368C253.067 119.259 262.13 78.1042 234.633 66.7683Z" fill="url(#paint23_linear_1_5)"/>
<path d="M322.873 84.6964L324.106 82.4939L330.672 82.8019C330.672 82.8019 343.095 96.8795 332.66 128.731L324.137 126.267C324.137 126.267 333.492 104.812 324.137 84.681L322.873 84.6964Z" fill="url(#paint24_linear_1_5)"/>
<path style="mix-blend-mode:multiply" opacity="0.5" fill-rule="evenodd" clip-rule="evenodd" d="M210.789 125.558C215.028 124.588 258.092 114.854 294.96 120.013C333.77 125.466 372.857 143.841 376.526 144.364C380.194 144.888 393.603 138.08 399.645 127.191C401.065 124.603 402.148 121.844 402.866 118.982V118.982C402.481 118.304 394.081 104.103 347.534 96.9257C315.124 92.2463 282.491 89.2799 249.769 88.0386C233.277 87.9154 223.566 94.6308 223.566 94.6308L210.789 125.558Z" fill="url(#paint25_linear_1_5)"/>
<path fill-rule="evenodd" clip-rule="evenodd" d="M180.918 103.903C180.918 103.903 176.911 105.643 175.863 108.955C175.863 108.955 187.037 123.71 191.276 125.651C195.514 127.591 206.042 127.792 210.465 125.651C214.889 123.51 225.508 109.786 223.258 85.1893C221.131 61.9628 198.335 50.7193 195.068 49.4409C190.213 47.5464 176.372 50.1802 171.948 58.9286C167.525 67.677 168.079 80.738 171.671 89.5019C173.86 94.8195 176.993 99.6982 180.918 103.903Z" fill="url(#paint26_linear_1_5)"/>
<path style="mix-blend-mode:multiply" opacity="0.5" fill-rule="evenodd" clip-rule="evenodd" d="M180.919 103.903L184.155 105.705C184.155 105.705 192.047 113.591 196.393 114.145C200.74 114.7 210.727 111.065 213.348 103.903C215.968 96.7409 213.902 76.0712 210.111 69.1864C206.319 62.3017 197.488 57.9737 194.991 57.5578C190.213 56.7415 179.454 57.8043 177.759 62.7176C176.063 67.6308 176.773 84.1265 180.996 91.9816C185.219 99.8367 193.326 102.84 195.73 102.84C198.135 102.84 206.026 97.5726 207.013 91.7198C207.999 85.867 201.88 66.9069 195.73 64.997C189.581 63.0872 184.371 66.3062 183.523 68.5549C182.676 70.8036 183.647 86.6987 186.282 89.5789C189.272 92.8441 195.145 91.6428 196.332 90.272C197.518 88.9012 193.727 72.4979 193.727 72.4979L190.875 70.9577L194.991 71.6816L198.197 70.8499L195.73 73.4836C195.73 73.4836 198.659 90.426 198.197 91.6274C197.734 92.8287 187.87 92.9828 185.234 90.4414C182.599 87.9001 181.597 70.9577 182.013 67.5846C182.429 64.2116 191.908 62.0706 196.332 63.6109C203.745 66.183 209.356 85.1739 209.125 91.6274C208.801 100.561 200.632 107.029 195.777 107.307C190.922 107.584 182.645 98.1425 179.377 92.6593C176.11 87.1762 174.491 65.9982 176.911 60.7307C179.331 55.4631 188.563 53.7689 194.991 54.7238C198.489 55.2321 207.429 61.5778 212.068 68.4163C216.708 75.2549 218.234 96.8179 214.535 105.104C211.914 111.034 204.054 117.21 195.777 116.471C187.5 115.732 179.809 104.365 179.809 104.365L180.919 103.903Z" fill="url(#paint27_linear_1_5)"/>
<path fill-rule="evenodd" clip-rule="evenodd" d="M193.788 72.5595C191.871 78.7606 191.871 85.3954 193.788 91.5965C194.47 91.9699 195.231 92.1757 196.008 92.1972C196.786 92.2186 197.557 92.0549 198.258 91.7197C198.258 91.7197 198.258 80.43 195.792 73.576L193.788 72.5595Z" fill="url(#paint28_linear_1_5)"/>
<path style="mix-blend-mode:multiply" opacity="0.5" fill-rule="evenodd" clip-rule="evenodd" d="M233.939 63.7032C233.939 63.7032 257.86 77.0569 254.531 100.792L252.743 100.653C252.743 100.653 256.057 75.3627 233.246 66.2138L233.939 63.7032Z" fill="url(#paint29_linear_1_5)"/>
<path style="mix-blend-mode:multiply" opacity="0.5" fill-rule="evenodd" clip-rule="evenodd" d="M322.873 84.6964L324.106 82.4939C324.106 82.4939 333.631 91.7351 328.036 119.69L326.495 119.043C326.495 119.043 332.275 103.841 324.183 84.7118L322.873 84.6964Z" fill="url(#paint30_linear_1_5)"/>
<g style="mix-blend-mode:multiply">
<path d="M112.716 187.29L114.92 190.201C115.136 187.121 124.63 176.077 124.63 176.077L123.412 174.768C123.412 174.768 115.213 175.677 112.716 187.29Z" fill="#543160"/>
</g>
<path fill-rule="evenodd" clip-rule="evenodd" d="M349.738 313.249C350.747 314.615 352.078 315.712 353.614 316.44C355.149 317.168 356.841 317.506 358.538 317.423L360.373 314.589C360.373 314.589 364.627 316.945 375.786 305.625C386.945 294.304 401.988 248.745 400.046 224.594C398.104 200.443 381.828 184.333 381.828 184.333L361.128 224.594L349.738 313.249Z" fill="#150818"/>
<g style="mix-blend-mode:multiply">
<path d="M158.616 176.632C158.616 176.632 150.601 196.131 156.705 212.134C156.705 212.134 145.546 200.105 155.04 173.474L158.616 176.632Z" fill="#543160"/>
</g>
<path d="M221.547 298.925C224.954 302.329 230.918 306.01 236.02 308.828C236.179 308.907 236.333 308.995 236.483 309.09C240.398 311.246 243.711 312.833 244.805 313.372L244.99 313.464L245.175 313.541L245.946 313.665L246.624 313.757L247.534 313.896L248.674 314.08C259.186 315.621 269.605 316.776 279.5 317.592L281.042 317.731C302.872 319.478 324.785 319.957 346.671 319.163V319.163V319.086C362.931 284.539 369.929 241.921 369.929 241.921L376.556 238.98C404.392 161.83 377.389 109.848 377.389 109.848C343.927 96.4636 289.889 92.0124 267.494 91.8276C264.619 91.7506 261.742 91.838 258.878 92.0894C257.469 92.2858 256.081 92.6106 254.732 93.0597C242.894 96.8949 225.108 109.848 225.108 109.848C222.256 128.192 221.547 298.925 221.547 298.925Z" fill="url(#paint31_linear_1_5)"/>
<path style="mix-blend-mode:multiply" opacity="0.5" d="M258.986 92.0432C269.96 129.393 265.428 230.077 265.428 230.077L305.379 118.982L267.586 91.7814C264.717 91.705 261.845 91.7924 258.986 92.0432V92.0432Z" fill="url(#paint32_linear_1_5)"/>
<path d="M376.664 238.933C376.664 238.933 317.17 243 271.855 234.575L265.382 230.077C265.382 230.077 282.845 149.308 258.924 92.0278C258.924 92.0278 314.041 87.8692 377.45 109.786C377.497 109.786 406.042 165.434 376.664 238.933Z" fill="url(#paint33_linear_1_5)"/>
<path fill-rule="evenodd" clip-rule="evenodd" d="M368.48 151.665C368.48 151.665 336.436 142.578 306.828 142.131H299.584C299.584 142.131 297.549 186.042 296.285 206.82L303.391 208.098C322.521 210.908 341.893 211.708 361.19 210.486C361.19 210.486 367.278 186.659 368.48 151.665Z" fill="url(#paint34_linear_1_5)"/>
<path style="mix-blend-mode:multiply" opacity="0.5" d="M306.92 142.131C306.92 142.131 306.92 182.5 301.294 207.759L296.378 206.882L299.676 142.193L306.92 142.131Z" fill="url(#paint35_linear_1_5)"/>
<path d="M366.183 161.784V165.296C347.181 160.99 327.801 158.56 308.323 158.041V154.468C308.323 154.468 338.763 157.086 366.183 161.784Z" fill="url(#paint36_linear_1_5)"/>
<path style="mix-blend-mode:multiply" opacity="0.5" d="M376.664 238.933C341.668 240.608 306.592 239.149 271.855 234.575L366.692 258.202L369.99 241.875L376.664 238.933Z" fill="url(#paint37_linear_1_5)"/>
<path style="mix-blend-mode:multiply" opacity="0.6" d="M244.99 313.464L261.606 315.728C261.606 315.728 262.207 195.469 251.865 178.218L236.02 308.828L244.99 313.464Z" fill="url(#paint38_linear_1_5)"/>
<path fill-rule="evenodd" clip-rule="evenodd" d="M179.793 242.769L181.335 259.711C181.335 259.711 203.529 270.492 253.915 276.237C255.579 276.453 257.275 276.638 259.001 276.807C312.947 282.337 366.199 278.347 366.199 278.347L370.345 261.267L366.754 258.186L366.199 260.604C366.199 260.604 305.117 262.144 256.458 258.186C207.799 254.228 183.6 244.324 183.6 244.324L182.876 242.692L179.793 242.769Z" fill="url(#paint39_linear_1_5)"/>
<path fill-rule="evenodd" clip-rule="evenodd" d="M332.429 220.805L317.817 219.111C317.817 219.111 313.81 282.984 293.572 318.008H290.875V319.548L307.29 321.088C307.29 321.088 322.873 293.596 332.429 220.805Z" fill="url(#paint40_linear_1_5)"/>
<path fill-rule="evenodd" clip-rule="evenodd" d="M338.317 244.802L336.59 257.478L332.367 260.004L329.947 278.347L333.924 282.198L332.367 291.193L303.468 287.82L296.362 284.462L297.333 275.359L303.961 272.233L305.795 256.353L300.123 252.133V242.769L305.363 241.598L338.317 244.802Z" fill="url(#paint41_linear_1_5)"/>
<path style="mix-blend-mode:multiply" opacity="0.5" d="M306.905 241.814V252.133L310.28 256.076L308.6 274.204L305.41 274.974L303.468 287.82L296.362 284.462L297.333 275.359L303.961 272.233L305.795 256.353L300.123 252.133V242.769L305.363 241.598L306.905 241.814Z" fill="url(#paint42_linear_1_5)"/>
<path fill-rule="evenodd" clip-rule="evenodd" d="M335.388 258.202C335.388 258.202 339.658 267.859 332.429 280.735L329.947 278.347L332.367 260.004L335.388 258.202Z" fill="#684A79"/>
<path fill-rule="evenodd" clip-rule="evenodd" d="M309.263 255.891L306.797 253.365H301.772C298.936 259.954 298.183 267.253 299.614 274.281L303.329 275.467L307.506 274.466L309.263 255.891Z" fill="url(#paint43_linear_1_5)"/>
<path fill-rule="evenodd" clip-rule="evenodd" d="M306.797 253.365C304.49 260.434 303.564 267.88 304.069 275.298L307.506 274.466L309.263 255.891L306.797 253.365Z" fill="#684A79"/>
<path d="M213.409 166.42C213.409 166.42 179.239 212.365 179.239 218.264C179.239 224.163 187.423 276.391 197.118 291.162C197.461 291.702 197.842 292.216 198.258 292.702C208.431 304.778 233.708 310.122 236.02 308.798C238.332 307.473 248.844 285.248 254.732 247.528C257.938 227.012 256.859 183.655 249.676 173.598C242.725 163.802 224.46 153.575 223.304 152.989L217.864 151.449C201.217 140.899 186.852 142.208 186.852 142.208C183.061 145.365 183.493 153.375 183.493 153.375L177.173 155.469C173.798 172.119 186.852 181.838 186.852 181.838C190.644 176.139 211.113 166.436 211.113 166.436L213.409 166.42Z" fill="url(#paint44_linear_1_5)"/>
<path d="M223.258 152.943C223.258 152.943 217.417 154.822 213.409 166.42H211.082C211.082 166.42 212.238 157.179 217.833 151.449L223.258 152.943Z" fill="url(#paint45_linear_1_5)"/>
<path style="mix-blend-mode:multiply" opacity="0.6" d="M189.318 246.419L197.118 291.193C197.461 291.732 197.842 292.247 198.258 292.733C208.431 304.808 233.708 310.153 236.02 308.828C238.332 307.504 248.844 285.278 254.732 247.559C257.937 227.043 256.859 183.686 249.676 173.628C242.725 163.833 224.46 153.606 223.304 153.02L241.646 170.902L236.39 198.364L218.264 205.711L223.566 182.269L219.821 155.392L216.738 159.428L218.28 171.749L211.221 199.042L202.589 213.058L192.54 216.431L189.318 246.419Z" fill="url(#paint46_linear_1_5)"/>
<path style="mix-blend-mode:multiply" opacity="0.6" d="M215.767 160.922L213.409 172.951L202.435 193.821L192.663 198.58L211.082 170.533L213.81 165.296L215.767 160.922Z" fill="url(#paint47_linear_1_5)"/>
<path style="mix-blend-mode:multiply" opacity="0.6" d="M215.767 154.006C215.767 154.006 193.557 149.878 183.4 153.39L183.908 147.691C194.737 148.559 205.428 150.678 215.767 154.006Z" fill="url(#paint48_linear_1_5)"/>
<path style="mix-blend-mode:multiply" opacity="0.6" d="M213.132 158.935L196.177 159.89L189.257 168.992L191.985 168.515C198.211 165.156 205.004 162.973 212.022 162.077L213.132 158.935Z" fill="url(#paint49_linear_1_5)"/>
<path style="mix-blend-mode:multiply" opacity="0.6" d="M236.02 308.828L236.483 309.075L244.806 313.357L244.99 313.449L245.175 313.526L245.946 313.649L246.624 313.742L247.534 313.88C252.45 314.558 264.488 316.175 279.5 317.577L281.042 317.715C301.079 319.517 326.233 320.873 346.671 319.148V319.071C362.931 284.524 369.929 241.906 369.929 241.906L376.556 238.964C406.504 161.815 377.389 109.833 377.389 109.833C343.927 96.4482 289.889 91.997 267.494 91.8122C267.494 91.8122 290.767 155.823 274.954 225.611H266.939C266.939 225.611 279.269 141.792 258.878 92.074L254.732 93.0444C254.732 93.0444 267.077 210.994 236.02 308.828Z" fill="url(#paint50_linear_1_5)"/>
<path fill-rule="evenodd" clip-rule="evenodd" d="M179.793 242.769L181.335 259.711C181.335 259.711 203.529 270.492 253.915 276.237V261.236L256.458 258.155C207.799 254.197 183.6 244.293 183.6 244.293L182.876 242.661L179.793 242.769Z" fill="#684A79"/>
<g style="mix-blend-mode:multiply" opacity="0.3">
<path fill-rule="evenodd" clip-rule="evenodd" d="M123.335 174.753H112.716C112.716 174.753 116.523 167.052 123.782 165.311C124.011 168.465 123.861 171.635 123.335 174.753V174.753Z" fill="#D97759"/>
</g>
<g style="mix-blend-mode:soft-light">
<path d="M174.168 575.609C174.168 575.609 175.971 577.472 183.415 578.689C187.64 579.398 191.953 579.398 196.177 578.689L192.262 572.359C192.262 572.359 187.161 575.116 174.168 575.609Z" fill="#E0FFFF"/>
</g>
<g style="mix-blend-mode:soft-light">
<path d="M330.333 568.94L332.922 576.641C332.922 576.641 315.968 579.275 301.032 573.329C301.032 573.329 302.42 572.436 312.638 572.513C326.788 572.59 329.192 569.694 330.333 568.94Z" fill="#E0FFFF"/>
</g>
<path d="M233.246 66.2138L213.317 62.8561C213.317 62.8561 200.092 50.1648 192.401 48.8556C192.401 48.8556 194.528 48.7169 203.19 52.1362C203.252 52.1978 223.844 65.1818 233.246 66.2138Z" fill="#E0FFFF"/>
<path d="M244.621 66.2754L235.388 64.5966V67.0301L232.675 66.2754L233.831 63.2258L244.621 66.2754Z" fill="#FFD1AE"/>
<path d="M34.5407 121.276L63.4864 114.084L149.337 100.222L149.075 99.8983C139.257 88.8703 130.687 80.4916 126.557 79.6907C119.574 78.3507 36.7448 118.042 34.5407 121.276Z" fill="#FFFFE6"/>
<path d="M0.924744 155.238L24.1677 145.057L56.0418 147.66L74.2601 121.276L30.7799 124.927C26.156 128.639 19.4976 133.198 19.4976 133.198C10.9895 140.144 3.49872 151.234 0.924744 155.238Z" fill="#FFFFE6"/>
<path d="M217.833 151.449L212.469 152.989C212.469 152.989 193.156 147.861 183.955 147.676C183.861 146.588 184.079 145.496 184.584 144.527C185.089 143.559 185.86 142.754 186.806 142.208C186.806 142.208 200.57 138.419 217.833 151.449Z" fill="#FFA190"/>
<path d="M208.77 154.006L201.973 158.965L178.375 163.786C178.375 163.786 176.495 158.935 177.127 155.485C177.127 155.454 193.295 150.371 208.77 154.006Z" fill="#FFA190"/>
<path d="M306.92 142.131C306.92 142.131 306.92 182.177 301.294 207.759L296.378 206.882L299.676 142.193L306.92 142.131Z" fill="#FF8645"/>
<path style="mix-blend-mode:multiply" opacity="0.6" d="M368.002 154.468L373.027 158.935L366.183 219.111C366.183 219.111 328.853 219.604 306.581 214.49L298.875 207.282C319.586 209.636 340.423 210.706 361.267 210.486C361.267 210.486 367.694 180.328 368.002 154.468Z" fill="url(#paint51_linear_1_5)"/>
<path d="M400 90.6416L375.709 84.2035H337.746C337.746 84.2035 377.127 80.2452 389.812 81.5235C389.735 81.5235 397.195 85.0968 400 90.6416Z" fill="#E0FFFF"/>
<g style="mix-blend-mode:soft-light">
<path d="M238.64 22.1175L237.639 25.5829C246.198 39.6154 257.412 51.8467 270.653 61.5932C292.232 77.2571 313.81 75.7631 313.81 75.7631L314.658 81.3233C314.658 81.3233 296.393 82.9867 269.035 63.7649C241.677 44.543 236.02 24.1813 236.02 24.1813L238.64 22.1175Z" fill="#FFC754"/>
</g>
<g style="mix-blend-mode:multiply">
<path d="M267.601 91.7813C267.601 91.7813 291.492 149.524 275.061 225.58H267.047C267.047 225.58 279.762 151.649 258.986 92.0432L254.839 93.0135C254.839 93.0135 263.147 186.967 252.867 258.201L254.855 205.649L236.359 198.318L218.233 205.665L211.036 198.996L202.404 213.012L192.355 216.385L189.272 246.388C189.272 246.388 205.841 252.549 244.004 257.016V275.021L236.02 308.828L245.175 313.541C245.175 313.541 294.127 326.479 346.701 319.163C346.701 319.163 354.824 305.794 361.513 278.64L366.137 278.332L370.283 261.251L366.692 258.171L369.99 241.844L376.618 238.903C376.618 238.903 406.781 167.021 377.45 109.771C377.497 109.802 339.719 91.4425 267.601 91.7813Z" fill="#984372"/>
</g>
<g style="mix-blend-mode:multiply">
<path d="M160.496 118.673C160.357 118.673 160.203 118.781 160.173 119.074C160.142 119.367 160.311 119.305 160.496 118.673Z" fill="#543160"/>
</g>
<path style="mix-blend-mode:screen" opacity="0.3" d="M0 156.717C0.986436 156.239 18.6806 147.599 23.2121 145.504L24.1677 145.057L41.5073 146.474C46.6245 147.137 51.942 147.922 56.0573 148.708C59.8643 149.432 66.8464 151.357 74.1522 153.544L72.1948 153.621L77.6818 157.764C75.6833 156.623 73.8393 155.23 72.1948 153.621C74.3376 159.116 78.3262 163.695 83.4772 166.574C92.2318 171.564 110.681 181.976 110.681 181.976L113.348 184.764C113.067 185.583 112.83 186.415 112.639 187.259L114.843 190.17V190.247C114.843 190.494 115.105 191.341 115.398 192.665C115.381 192.752 115.381 192.841 115.398 192.927C117.555 201.783 125.539 229.892 142.062 242.722C150.74 249.515 165.012 250.932 180.102 247.004L181.242 259.68C181.242 259.68 183.122 260.589 186.852 261.975C189.766 274.066 193.295 285.417 197.04 291.131C197.384 291.671 197.765 292.186 198.181 292.672C203.591 299.094 213.24 303.592 221.47 306.225C221.47 306.225 216.446 308.443 216.415 308.936C217.859 311.673 219.449 314.331 221.177 316.899L221.455 317.346L221.146 319.502C219.297 331.824 209.972 396.051 210.357 431.414C210.357 431.414 212.469 448.649 213.332 465.299C214.195 481.948 207.706 520.392 204.886 525.459C203.122 527.684 201.217 529.794 199.183 531.774C196.778 533.823 194.559 535.378 194.467 536.133C194.579 537.073 194.929 537.969 195.484 538.736C196.389 540.259 197.372 541.734 198.428 543.156C198.268 544.708 198.026 546.251 197.703 547.777C195.992 556.325 192.093 568.277 192.093 568.277C192.093 568.277 192.817 569.433 194.158 571.173C193.501 571.593 192.816 571.969 192.108 572.297C191.3 572.667 190.472 572.991 189.627 573.268C184.579 574.754 179.352 575.541 174.09 575.609C165.521 584.049 166.384 597.172 166.384 597.172L165.12 600.391C176.957 606.259 193.187 604.58 193.187 604.58L196.671 603.163C197.14 602.96 197.646 602.855 198.158 602.855C198.67 602.855 199.176 602.96 199.645 603.163C201.187 603.856 203.113 607.399 203.113 607.399C216.347 610.329 230.062 610.329 243.295 607.399L242.201 601.654C242.201 601.654 244.975 598.435 244.975 596.756C244.975 595.462 241.892 587.9 240.582 584.557C243.219 583.637 245.793 582.546 248.289 581.292C248.289 581.292 246.054 572.575 247.025 566.121C247.996 559.668 254.069 552.074 254.069 552.074L251.248 548.547C251.248 548.547 254.716 542.987 257.213 538.259C257.984 536.826 258.646 535.471 259.109 534.377C259.475 533.666 259.68 532.882 259.71 532.082V531.975C258.878 530.296 251.572 530.296 251.572 530.296C251.834 529.71 253.375 526.538 254.47 523.888C254.963 522.818 255.34 521.697 255.595 520.546C255.621 520.227 255.583 519.905 255.482 519.601C255.381 519.297 255.221 519.016 255.009 518.775C254.738 518.468 254.415 518.212 254.053 518.02C254.848 511.954 255.209 505.84 255.132 499.722C255.132 496.642 254.963 493.562 254.624 490.266C254.408 488.232 254.13 486.215 253.761 484.213C253.499 482.749 253.221 481.132 252.928 479.592C250.123 463.604 246.763 441.672 246.763 435.727C246.763 429.196 260.465 353.772 267.232 341.296L267.401 341.142L267.632 340.926L268.326 340.372L268.788 340.002C269.081 339.771 269.482 339.494 269.867 339.217L270.576 338.724C270.992 338.431 271.501 338.139 271.994 337.831L272.934 337.261C273.458 336.968 274.06 336.675 274.645 336.383L275.77 335.828C276.418 335.536 277.111 335.305 277.805 335.043C278.221 334.889 278.606 334.719 279.053 334.581C279.824 334.334 280.595 334.165 281.473 333.98C281.889 333.888 282.275 333.764 282.691 333.703C283.989 333.479 285.304 333.366 286.621 333.364V333.703C290.69 373.872 295.268 399.624 299.198 415.996C300.142 420.391 301.326 424.73 302.743 428.996C306.335 440.486 308.816 443.304 308.909 443.32C309.808 444.942 310.839 446.487 311.991 447.94C324.817 464.166 333.46 483.291 337.161 503.635C337.161 503.635 330.995 511.428 330.687 514.539C330.694 515.223 330.798 515.902 330.995 516.557C331.424 517.898 331.939 519.21 332.537 520.485C332.629 520.7 332.722 520.9 332.83 521.116C333.03 521.578 333.23 522.025 333.446 522.487C334.818 525.367 336.282 528.093 336.898 529.218C336.991 529.402 337.099 529.603 337.161 529.695V531.451L334.201 532.298V539.337C334.201 544.666 334.093 551.335 333.77 553.091C333.215 556.171 328.005 564.535 328.005 564.535C328.005 564.535 329.547 565.736 332.013 567.523C331.489 568.01 330.939 568.468 330.363 568.893V568.893C329.602 569.474 328.792 569.99 327.944 570.434L327.435 570.634C327.083 570.786 326.722 570.92 326.356 571.034C324.3 571.632 322.187 572.014 320.052 572.174C317.74 572.344 315.151 572.405 312.623 572.451C308.446 572.451 305.795 572.559 304.069 572.713C303.105 572.741 302.15 572.907 301.233 573.206H301.063C299.09 574.469 297.04 586.067 297.04 586.067L295.16 588.808C295.16 588.808 304.285 597.526 314.272 598.635C319.99 599.282 325.585 599.343 329.685 599.405C331.631 599.317 333.581 599.405 335.511 599.667C337.053 600.191 338.887 603.764 338.979 604.827C339.251 605.895 339.644 606.928 340.151 607.907C354.593 611.604 378.791 607.907 378.791 607.907V600.961C380.028 599.388 380.754 597.475 380.872 595.478C380.872 593.768 379.685 586.652 378.668 580.907C381.977 580.068 385.109 578.644 387.916 576.702C387.916 576.702 386.005 573.329 385.619 561.747C385.234 550.164 390.428 542.356 390.243 541.724C390.058 541.093 385.619 538.413 385.619 538.413L385.404 538.49C386.113 538.151 386.775 537.812 387.392 537.473C388.992 536.611 390.469 535.539 391.785 534.285C392.207 533.915 392.543 533.458 392.771 532.945C393.033 531.266 388.825 530.419 388.825 530.419C388.825 530.419 391.183 526.661 392.971 523.134C393.617 521.895 394.163 520.608 394.605 519.283V519.283C394.816 518.707 394.911 518.094 394.882 517.481C394.328 515.109 389.21 514.093 387.176 513.153C387.081 513.118 386.988 513.077 386.899 513.03V513.03C386.899 513.03 386.714 512.845 386.621 512.768C385.48 511.344 384.627 509.712 384.109 507.963C383.234 505.602 382.614 503.154 382.259 500.662C381.828 496.75 382.937 483.72 371.131 466.038C360.234 449.727 348.458 434.926 343.388 423.959C342.941 423.004 342.463 422.034 342.124 421.156C340.783 417.598 339.164 408.48 337.623 396.898C335.404 380.294 333.338 358.593 332.429 340.665C333.646 339.124 335.141 337.384 336.02 336.044C337.7 333.518 340.197 329.436 340.197 329.436L339.395 333.518C335.881 338.708 333.23 345.84 334.186 350.368C334.429 351.629 334.93 352.827 335.656 353.887C336.383 354.947 337.32 355.846 338.409 356.529L344.204 352.047C344.291 352.895 344.52 353.723 344.883 354.496C344.883 354.496 353.93 346.271 355.225 344.376C356.519 342.482 356.766 325.801 358.831 317.253L360.65 314.435C360.65 314.435 364.904 316.791 376.063 305.471C387.222 294.15 402.265 248.591 400.323 224.44C399.236 213.137 395.331 202.286 388.964 192.881C389.642 187.721 390.074 182.746 390.305 177.987C391.167 165.132 390.395 152.22 388.008 139.559C392.905 136.354 397.002 132.07 399.984 127.037C401.404 124.449 402.487 121.69 403.205 118.828V118.828C405.101 111.352 405.101 103.523 403.205 96.0478C402.582 94.0548 401.629 92.1805 400.385 90.503V90.503C397.58 84.9582 390.12 81.3849 390.12 81.3849C377.435 80.1066 338.054 84.0649 338.054 84.0649H341.553C338.471 84.2189 335.388 84.3422 332.305 84.4192C331.926 83.7851 331.504 83.1778 331.042 82.6017L324.476 82.2937L323.243 84.4962C319.574 84.4962 315.875 84.3575 312.192 84.1573C313.435 83.4369 314.438 82.3652 315.074 81.0769L314.226 75.5167C314.226 75.5167 331.365 64.9046 323.243 41.555C321.659 36.9831 319.652 32.5692 317.247 28.3708C307.907 11.9367 293.187 0.646917 276.171 -0.153994C254.87 -1.10893 239.01 21.9327 239.01 21.9327L236.375 23.9966C234.571 29.9572 235.003 41.4472 235.003 41.555C236.916 45.606 239.121 49.513 241.6 53.2452C241.495 53.68 241.362 54.1071 241.199 54.5236C239.507 57.48 238.192 60.6363 237.284 63.9189L234.201 63.041L233.122 65.9058C226.325 63.4568 220.715 61.2082 216.939 59.4985L215.228 58.713C208.847 55.3091 203.622 52.013 203.622 52.013C200.619 50.8807 197.539 49.9645 194.405 49.2715C194.137 49.192 193.864 49.1302 193.588 49.0867H193.141H192.771H192.432C186.375 48.6246 175.74 51.628 171.948 59.098C167.525 67.8311 168.079 80.9075 171.671 89.6713C173.86 94.9889 176.993 99.8676 180.918 104.072C180.918 104.072 180.518 104.257 179.963 104.581H179.87C178.049 105.565 176.631 107.156 175.863 109.078C175.863 109.078 185.928 122.37 190.552 125.373C187.1 129.739 183.889 134.289 180.934 139.004C171.686 127.206 159.895 112.297 149.337 100.376L149.075 100.052C139.257 89.0244 130.687 80.6456 126.557 79.8447C119.574 78.4739 36.7448 118.165 34.5407 121.431C33.4297 122.786 32.168 124.01 30.7799 125.081C26.156 128.793 19.4976 133.352 19.4976 133.352C11.0358 140.329 3.4988 151.388 1.00189 155.392C0.400777 156.055 0.0770653 156.563 0 156.717ZM337.191 533.392C337.469 533.499 352.527 539.321 364.657 541.216C354.423 540.307 337.623 533.561 337.191 533.392V533.392ZM331.766 331.007C331.766 330.129 331.766 329.267 331.766 328.42C331.766 327.573 331.766 326.695 331.766 325.863C334.525 324.831 336.39 321.473 337.931 320.21L342.216 319.748C340.214 323.855 337.032 327.271 333.076 329.56C332.61 330.015 332.173 330.498 331.766 331.007Z" fill="url(#paint52_linear_1_5)"/>
<path d="M77.6973 157.78L72.2564 153.698C73.8921 155.28 75.72 156.652 77.6973 157.78V157.78Z" fill="#543160"/>
<path d="M72.1793 153.621C72.1711 153.646 72.1711 153.673 72.1793 153.698V153.621Z" fill="#543160"/>
</g>
<defs>
<linearGradient id="paint0_linear_1_5" x1="368.48" y1="354.65" x2="368.48" y2="198.996" gradientUnits="userSpaceOnUse">
<stop offset="0.02" stop-color="#CD706F"/>
<stop offset="1" stop-color="#DB7766"/>
</linearGradient>
<linearGradient id="paint1_linear_1_5" x1="294.621" y1="555.232" x2="294.621" y2="306.302" gradientUnits="userSpaceOnUse">
<stop stop-color="#4A4AA2"/>
<stop offset="1" stop-color="#6066BA"/>
</linearGradient>
<linearGradient id="paint2_linear_1_5" x1="204.269" y1="609.478" x2="204.269" y2="597.11" gradientUnits="userSpaceOnUse">
<stop stop-color="#C96152"/>
<stop offset="0.98" stop-color="#C76834"/>
</linearGradient>
<linearGradient id="paint3_linear_1_5" x1="336.899" y1="609.694" x2="336.899" y2="586.144" gradientUnits="userSpaceOnUse">
<stop stop-color="#C96152"/>
<stop offset="0.98" stop-color="#C76834"/>
</linearGradient>
<linearGradient id="paint4_linear_1_5" x1="338.887" y1="603.179" x2="338.887" y2="564.304" gradientUnits="userSpaceOnUse">
<stop offset="0.01" stop-color="#3E1B40"/>
<stop offset="0.98" stop-color="#3A234D"/>
</linearGradient>
<linearGradient id="paint5_linear_1_5" x1="205.734" y1="603.102" x2="205.734" y2="570.973" gradientUnits="userSpaceOnUse">
<stop offset="0.01" stop-color="#3E1B40"/>
<stop offset="0.98" stop-color="#3A234D"/>
</linearGradient>
<linearGradient id="paint6_linear_1_5" x1="359.032" y1="582.879" x2="359.032" y2="531.482" gradientUnits="userSpaceOnUse">
<stop offset="0.01" stop-color="#3E1B40"/>
<stop offset="0.98" stop-color="#523E63"/>
</linearGradient>
<linearGradient id="paint7_linear_1_5" x1="223.181" y1="588.069" x2="223.181" y2="543.157" gradientUnits="userSpaceOnUse">
<stop offset="0.01" stop-color="#3E1B40"/>
<stop offset="0.98" stop-color="#523E63"/>
</linearGradient>
<linearGradient id="paint8_linear_1_5" x1="271.455" y1="341.157" x2="271.455" y2="291.193" gradientUnits="userSpaceOnUse">
<stop offset="0.01" stop-color="#BE6888"/>
<stop offset="1" stop-color="#C26157"/>
</linearGradient>
<linearGradient id="paint9_linear_1_5" x1="362.715" y1="541.816" x2="362.715" y2="516.542" gradientUnits="userSpaceOnUse">
<stop offset="0.01" stop-color="#BE6888"/>
<stop offset="1" stop-color="#C26157"/>
</linearGradient>
<linearGradient id="paint10_linear_1_5" x1="227.188" y1="555.232" x2="227.188" y2="531.913" gradientUnits="userSpaceOnUse">
<stop offset="0.01" stop-color="#BE6888"/>
<stop offset="1" stop-color="#C26157"/>
</linearGradient>
<linearGradient id="paint11_linear_1_5" x1="348.397" y1="431.984" x2="316.137" y2="431.984" gradientUnits="userSpaceOnUse">
<stop offset="0.01" stop-color="#BE6888"/>
<stop offset="1" stop-color="#C26157"/>
</linearGradient>
<linearGradient id="paint12_linear_1_5" x1="246.948" y1="439.408" x2="221.208" y2="439.408" gradientUnits="userSpaceOnUse">
<stop offset="0.01" stop-color="#BE6888"/>
<stop offset="1" stop-color="#C26157"/>
</linearGradient>
<linearGradient id="paint13_linear_1_5" x1="98.0733" y1="212.134" x2="98.0733" y2="79.6753" gradientUnits="userSpaceOnUse">
<stop stop-color="#907AAC"/>
<stop offset="1" stop-color="#FFBAFF"/>
</linearGradient>
<linearGradient id="paint14_linear_1_5" x1="165.79" y1="230.345" x2="90.401" y2="135.433" gradientUnits="userSpaceOnUse">
<stop offset="0.02" stop-color="#CD706F"/>
<stop offset="1" stop-color="#DB7766"/>
</linearGradient>
<linearGradient id="paint15_linear_1_5" x1="186.806" y1="235.098" x2="186.806" y2="162.077" gradientUnits="userSpaceOnUse">
<stop offset="0.02" stop-color="#CD706F"/>
<stop offset="1" stop-color="#DB7766"/>
</linearGradient>
<radialGradient id="paint16_radial_1_5" cx="0" cy="0" r="1" gradientUnits="userSpaceOnUse" gradientTransform="translate(195.915 113.62) rotate(180) scale(49.1985 36.3811)">
<stop offset="0.01" stop-color="#FCBF00"/>
<stop offset="1" stop-color="#CCAE00"/>
</radialGradient>
<linearGradient id="paint17_linear_1_5" x1="177.065" y1="249.207" x2="177.065" y2="119.459" gradientUnits="userSpaceOnUse">
<stop offset="0.01" stop-color="#3E1B40"/>
<stop offset="0.98" stop-color="#3A234D"/>
</linearGradient>
<linearGradient id="paint18_linear_1_5" x1="265.428" y1="109.802" x2="265.428" y2="38.6902" gradientUnits="userSpaceOnUse">
<stop offset="0.02" stop-color="#CD706F"/>
<stop offset="1" stop-color="#DB7766"/>
</linearGradient>
<linearGradient id="paint19_linear_1_5" x1="279.377" y1="98.9741" x2="279.377" y2="33.5767" gradientUnits="userSpaceOnUse">
<stop offset="0.01" stop-color="#A6453D"/>
<stop offset="0.99" stop-color="#6F2E45"/>
</linearGradient>
<radialGradient id="paint20_radial_1_5" cx="0" cy="0" r="1" gradientUnits="userSpaceOnUse" gradientTransform="translate(275.786 8.45488) rotate(180) scale(54.7472 40.4842)">
<stop offset="0.01" stop-color="#B89800"/>
<stop offset="1" stop-color="#926600"/>
</radialGradient>
<linearGradient id="paint21_linear_1_5" x1="281.042" y1="88.6855" x2="281.042" y2="10.5659" gradientUnits="userSpaceOnUse">
<stop offset="0.01" stop-color="#BE6888"/>
<stop offset="1" stop-color="#8E81F4"/>
</linearGradient>
<linearGradient id="paint22_linear_1_5" x1="299.645" y1="144.395" x2="299.645" y2="49.4408" gradientUnits="userSpaceOnUse">
<stop stop-color="#7959A6"/>
<stop offset="0.38" stop-color="#8E7AC4"/>
<stop offset="0.77" stop-color="#A097DD"/>
<stop offset="1" stop-color="#A7A2E7"/>
</linearGradient>
<linearGradient id="paint23_linear_1_5" x1="258.97" y1="92.0278" x2="233.246" y2="92.0278" gradientUnits="userSpaceOnUse">
<stop offset="0.02" stop-color="#C76834"/>
<stop offset="1" stop-color="#C96152"/>
</linearGradient>
<linearGradient id="paint24_linear_1_5" x1="336.837" y1="105.551" x2="322.873" y2="105.551" gradientUnits="userSpaceOnUse">
<stop offset="0.02" stop-color="#C76834"/>
<stop offset="1" stop-color="#C96152"/>
</linearGradient>
<linearGradient id="paint25_linear_1_5" x1="306.828" y1="144.395" x2="306.828" y2="88.0232" gradientUnits="userSpaceOnUse">
<stop offset="0.01" stop-color="#BE6888"/>
<stop offset="1" stop-color="#8E81F4"/>
</linearGradient>
<linearGradient id="paint26_linear_1_5" x1="196.162" y1="127.175" x2="196.162" y2="48.8556" gradientUnits="userSpaceOnUse">
<stop stop-color="#DBE5FF"/>
<stop offset="1" stop-color="white"/>
</linearGradient>
<linearGradient id="paint27_linear_1_5" x1="196.239" y1="116.625" x2="196.239" y2="54.5698" gradientUnits="userSpaceOnUse">
<stop offset="0.01" stop-color="#BE6888"/>
<stop offset="1" stop-color="#8E81F4"/>
</linearGradient>
<linearGradient id="paint28_linear_1_5" x1="195.33" y1="92.1818" x2="195.33" y2="72.5595" gradientUnits="userSpaceOnUse">
<stop stop-color="#BDB3E7"/>
<stop offset="0.65" stop-color="#B2AEEB"/>
<stop offset="1" stop-color="#AAAAEE"/>
</linearGradient>
<linearGradient id="paint29_linear_1_5" x1="244.05" y1="100.792" x2="244.05" y2="63.7032" gradientUnits="userSpaceOnUse">
<stop offset="0.01" stop-color="#BE6888"/>
<stop offset="1" stop-color="#8E81F4"/>
</linearGradient>
<linearGradient id="paint30_linear_1_5" x1="326.341" y1="119.628" x2="326.341" y2="82.4323" gradientUnits="userSpaceOnUse">
<stop offset="0.01" stop-color="#BE6888"/>
<stop offset="1" stop-color="#8E81F4"/>
</linearGradient>
<linearGradient id="paint31_linear_1_5" x1="305.41" y1="319.533" x2="305.41" y2="91.7813" gradientUnits="userSpaceOnUse">
<stop stop-color="#A94842"/>
<stop offset="0.98" stop-color="#C4786D"/>
</linearGradient>
<linearGradient id="paint32_linear_1_5" x1="282.182" y1="230.077" x2="282.182" y2="91.7814" gradientUnits="userSpaceOnUse">
<stop offset="0.01" stop-color="#9A5459"/>
<stop offset="1" stop-color="#C2819F"/>
</linearGradient>
<linearGradient id="paint33_linear_1_5" x1="324.46" y1="239.919" x2="324.46" y2="91.7198" gradientUnits="userSpaceOnUse">
<stop stop-color="#A94842"/>
<stop offset="0.98" stop-color="#C4786D"/>
</linearGradient>
<linearGradient id="paint34_linear_1_5" x1="332.429" y1="211.179" x2="332.429" y2="142.131" gradientUnits="userSpaceOnUse">
<stop stop-color="#FF8617"/>
<stop offset="1" stop-color="#FF9D2C"/>
</linearGradient>
<linearGradient id="paint35_linear_1_5" x1="301.634" y1="207.759" x2="301.634" y2="142.131" gradientUnits="userSpaceOnUse">
<stop offset="0.01" stop-color="#9A5459"/>
<stop offset="1" stop-color="#C2819F"/>
</linearGradient>
<linearGradient id="paint36_linear_1_5" x1="366.183" y1="159.89" x2="308.323" y2="159.89" gradientUnits="userSpaceOnUse">
<stop stop-color="#FFE1C5"/>
<stop offset="1" stop-color="#A7A9CB"/>
</linearGradient>
<linearGradient id="paint37_linear_1_5" x1="324.275" y1="258.202" x2="324.275" y2="234.575" gradientUnits="userSpaceOnUse">
<stop offset="0.01" stop-color="#BE6888"/>
<stop offset="1" stop-color="#8E81F4"/>
</linearGradient>
<linearGradient id="paint38_linear_1_5" x1="248.813" y1="315.698" x2="248.813" y2="178.187" gradientUnits="userSpaceOnUse">
<stop offset="0.01" stop-color="#BE6888"/>
<stop offset="1" stop-color="#C26157"/>
</linearGradient>
<linearGradient id="paint39_linear_1_5" x1="370.33" y1="261.251" x2="179.793" y2="261.251" gradientUnits="userSpaceOnUse">
<stop offset="0.01" stop-color="#3E1B40"/>
<stop offset="0.98" stop-color="#523E63"/>
</linearGradient>
<linearGradient id="paint40_linear_1_5" x1="311.652" y1="321.088" x2="311.652" y2="219.111" gradientUnits="userSpaceOnUse">
<stop offset="0.01" stop-color="#3E1B40"/>
<stop offset="0.98" stop-color="#523E63"/>
</linearGradient>
<linearGradient id="paint41_linear_1_5" x1="317.339" y1="291.193" x2="317.339" y2="241.598" gradientUnits="userSpaceOnUse">
<stop offset="0.01" stop-color="#3E1B40"/>
<stop offset="0.98" stop-color="#523E63"/>
</linearGradient>
<linearGradient id="paint42_linear_1_5" x1="303.329" y1="287.835" x2="303.329" y2="241.598" gradientUnits="userSpaceOnUse">
<stop offset="0.01" stop-color="#BE6888"/>
<stop offset="1" stop-color="#8E81F4"/>
</linearGradient>
<linearGradient id="paint43_linear_1_5" x1="304.069" y1="275.467" x2="304.069" y2="253.365" gradientUnits="userSpaceOnUse">
<stop offset="0.01" stop-color="#3E1B40"/>
<stop offset="0.98" stop-color="#523E63"/>
</linearGradient>
<linearGradient id="paint44_linear_1_5" x1="216.507" y1="309.044" x2="216.507" y2="142.146" gradientUnits="userSpaceOnUse">
<stop offset="0.01" stop-color="#6F1327"/>
<stop offset="0.99" stop-color="#863424"/>
</linearGradient>
<linearGradient id="paint45_linear_1_5" x1="217.17" y1="166.42" x2="217.17" y2="151.449" gradientUnits="userSpaceOnUse">
<stop offset="0.02" stop-color="#C76834"/>
<stop offset="1" stop-color="#C96152"/>
</linearGradient>
<linearGradient id="paint46_linear_1_5" x1="222.888" y1="309.044" x2="222.888" y2="152.974" gradientUnits="userSpaceOnUse">
<stop offset="0.01" stop-color="#BE6888"/>
<stop offset="1" stop-color="#C26157"/>
</linearGradient>
<linearGradient id="paint47_linear_1_5" x1="204.223" y1="198.58" x2="204.223" y2="160.922" gradientUnits="userSpaceOnUse">
<stop offset="0.01" stop-color="#BE6888"/>
<stop offset="1" stop-color="#C26157"/>
</linearGradient>
<linearGradient id="paint48_linear_1_5" x1="199.614" y1="153.975" x2="199.614" y2="147.66" gradientUnits="userSpaceOnUse">
<stop offset="0.01" stop-color="#BE6888"/>
<stop offset="1" stop-color="#C26157"/>
</linearGradient>
<linearGradient id="paint49_linear_1_5" x1="201.233" y1="168.992" x2="201.233" y2="158.935" gradientUnits="userSpaceOnUse">
<stop offset="0.01" stop-color="#BE6888"/>
<stop offset="1" stop-color="#C26157"/>
</linearGradient>
<linearGradient id="paint50_linear_1_5" x1="313.101" y1="319.964" x2="313.101" y2="91.7814" gradientUnits="userSpaceOnUse">
<stop offset="0.01" stop-color="#BE6888"/>
<stop offset="1" stop-color="#C26157"/>
</linearGradient>
<linearGradient id="paint51_linear_1_5" x1="373.027" y1="186.797" x2="298.875" y2="186.797" gradientUnits="userSpaceOnUse">
<stop offset="0.01" stop-color="#BE6888"/>
<stop offset="1" stop-color="#C26157"/>
</linearGradient>
<linearGradient id="paint52_linear_1_5" x1="202.127" y1="609.694" x2="202.127" y2="6.18971e-05" gradientUnits="userSpaceOnUse">
<stop offset="0.34"/>
<stop offset="1" stop-color="#595CD8"/>
</linearGradient>
<clipPath id="clip0_1_5">
<rect width="642" height="649" fill="white"/>
</clipPath>
</defs>
</svg>
